G04 #@! TF.FileFunction,Copper,L2,Bot,Signal*
%FSLAX46Y46*%
G04 Gerber Fmt 4.6, Leading zero omitted, Abs format (unit mm)*
G04 Created by KiCad (PCBNEW 4.0.6) date Sunday, July 09, 2017 'PMt' 08:53:28 PM*
%MOMM*%
%LPD*%
G01*
G04 APERTURE LIST*
%ADD10C,0.100000*%
%ADD11C,4.400000*%
%ADD12C,0.600000*%
%ADD13R,1.727200X1.727200*%
%ADD14O,1.727200X1.727200*%
%ADD15C,0.254000*%
G04 APERTURE END LIST*
D10*
D11*
X101755000Y-73960000D03*
X79755000Y-73960000D03*
X101755000Y-41960000D03*
D12*
X96255000Y-55960000D03*
X97155000Y-40386000D03*
X97155000Y-45212000D03*
X84455000Y-45720000D03*
X84455000Y-40386000D03*
X93218000Y-51054000D03*
X93218000Y-54356000D03*
X92329000Y-55880000D03*
X90043000Y-55880000D03*
X92329000Y-48260000D03*
X90043000Y-48260000D03*
X87755000Y-63960000D03*
D13*
X92075000Y-71755000D03*
D14*
X89535000Y-71755000D03*
X92075000Y-69215000D03*
X89535000Y-69215000D03*
X92075000Y-66675000D03*
X89535000Y-66675000D03*
D11*
X79755000Y-41960000D03*
D15*
G36*
X105045000Y-77250000D02*
X76465000Y-77250000D01*
X76465000Y-74521442D01*
X76919509Y-74521442D01*
X77350202Y-75563801D01*
X78147005Y-76361995D01*
X79188610Y-76794507D01*
X80316442Y-76795491D01*
X81358801Y-76364798D01*
X82156995Y-75567995D01*
X82589507Y-74526390D01*
X82589511Y-74521442D01*
X98919509Y-74521442D01*
X99350202Y-75563801D01*
X100147005Y-76361995D01*
X101188610Y-76794507D01*
X102316442Y-76795491D01*
X103358801Y-76364798D01*
X104156995Y-75567995D01*
X104589507Y-74526390D01*
X104590491Y-73398558D01*
X104159798Y-72356199D01*
X103362995Y-71558005D01*
X102321390Y-71125493D01*
X101193558Y-71124509D01*
X100151199Y-71555202D01*
X99353005Y-72352005D01*
X98920493Y-73393610D01*
X98919509Y-74521442D01*
X82589511Y-74521442D01*
X82590491Y-73398558D01*
X82159798Y-72356199D01*
X81362995Y-71558005D01*
X80321390Y-71125493D01*
X79193558Y-71124509D01*
X78151199Y-71555202D01*
X77353005Y-72352005D01*
X76920493Y-73393610D01*
X76919509Y-74521442D01*
X76465000Y-74521442D01*
X76465000Y-69215000D01*
X88007041Y-69215000D01*
X88121115Y-69788489D01*
X88445971Y-70274670D01*
X88760752Y-70485000D01*
X88445971Y-70695330D01*
X88121115Y-71181511D01*
X88007041Y-71755000D01*
X88121115Y-72328489D01*
X88445971Y-72814670D01*
X88932152Y-73139526D01*
X89505641Y-73253600D01*
X89564359Y-73253600D01*
X90137848Y-73139526D01*
X90603442Y-72828426D01*
X90608238Y-72853917D01*
X90747310Y-73070041D01*
X90959510Y-73215031D01*
X91211400Y-73266040D01*
X92938600Y-73266040D01*
X93173917Y-73221762D01*
X93390041Y-73082690D01*
X93535031Y-72870490D01*
X93586040Y-72618600D01*
X93586040Y-70891400D01*
X93541762Y-70656083D01*
X93402690Y-70439959D01*
X93190490Y-70294969D01*
X93146869Y-70286136D01*
X93164029Y-70274670D01*
X93488885Y-69788489D01*
X93602959Y-69215000D01*
X93488885Y-68641511D01*
X93164029Y-68155330D01*
X92849248Y-67945000D01*
X93164029Y-67734670D01*
X93488885Y-67248489D01*
X93602959Y-66675000D01*
X93488885Y-66101511D01*
X93164029Y-65615330D01*
X92677848Y-65290474D01*
X92104359Y-65176400D01*
X92045641Y-65176400D01*
X91472152Y-65290474D01*
X90985971Y-65615330D01*
X90805008Y-65886161D01*
X90423490Y-65468179D01*
X89894027Y-65220032D01*
X89662000Y-65340531D01*
X89662000Y-66548000D01*
X89682000Y-66548000D01*
X89682000Y-66802000D01*
X89662000Y-66802000D01*
X89662000Y-66822000D01*
X89408000Y-66822000D01*
X89408000Y-66802000D01*
X88201183Y-66802000D01*
X88080042Y-67034026D01*
X88252312Y-67449947D01*
X88646510Y-67881821D01*
X88769228Y-67939336D01*
X88445971Y-68155330D01*
X88121115Y-68641511D01*
X88007041Y-69215000D01*
X76465000Y-69215000D01*
X76465000Y-66315974D01*
X88080042Y-66315974D01*
X88201183Y-66548000D01*
X89408000Y-66548000D01*
X89408000Y-65340531D01*
X89175973Y-65220032D01*
X88646510Y-65468179D01*
X88252312Y-65900053D01*
X88080042Y-66315974D01*
X76465000Y-66315974D01*
X76465000Y-42521442D01*
X76919509Y-42521442D01*
X77350202Y-43563801D01*
X78147005Y-44361995D01*
X79188610Y-44794507D01*
X80316442Y-44795491D01*
X81358801Y-44364798D01*
X82114225Y-43610690D01*
X87520592Y-43610690D01*
X87685362Y-44009463D01*
X87990193Y-44314826D01*
X88388677Y-44480291D01*
X88820150Y-44480668D01*
X89218923Y-44315898D01*
X89524286Y-44011067D01*
X89689751Y-43612583D01*
X89689752Y-43610690D01*
X91919872Y-43610690D01*
X92084642Y-44009463D01*
X92389473Y-44314826D01*
X92787957Y-44480291D01*
X93219430Y-44480668D01*
X93618203Y-44315898D01*
X93923566Y-44011067D01*
X94089031Y-43612583D01*
X94089408Y-43181110D01*
X93924638Y-42782337D01*
X93664198Y-42521442D01*
X98919509Y-42521442D01*
X99350202Y-43563801D01*
X100147005Y-44361995D01*
X101188610Y-44794507D01*
X102316442Y-44795491D01*
X103358801Y-44364798D01*
X104156995Y-43567995D01*
X104589507Y-42526390D01*
X104590491Y-41398558D01*
X104159798Y-40356199D01*
X103362995Y-39558005D01*
X102321390Y-39125493D01*
X101193558Y-39124509D01*
X100151199Y-39555202D01*
X99353005Y-40352005D01*
X98920493Y-41393610D01*
X98919509Y-42521442D01*
X93664198Y-42521442D01*
X93619807Y-42476974D01*
X93221323Y-42311509D01*
X92789850Y-42311132D01*
X92391077Y-42475902D01*
X92085714Y-42780733D01*
X91920249Y-43179217D01*
X91919872Y-43610690D01*
X89689752Y-43610690D01*
X89690128Y-43181110D01*
X89525358Y-42782337D01*
X89220527Y-42476974D01*
X88822043Y-42311509D01*
X88390570Y-42311132D01*
X87991797Y-42475902D01*
X87686434Y-42780733D01*
X87520969Y-43179217D01*
X87520592Y-43610690D01*
X82114225Y-43610690D01*
X82156995Y-43567995D01*
X82589507Y-42526390D01*
X82590491Y-41398558D01*
X82159798Y-40356199D01*
X81362995Y-39558005D01*
X80321390Y-39125493D01*
X79193558Y-39124509D01*
X78151199Y-39555202D01*
X77353005Y-40352005D01*
X76920493Y-41393610D01*
X76919509Y-42521442D01*
X76465000Y-42521442D01*
X76465000Y-38670000D01*
X105045000Y-38670000D01*
X105045000Y-77250000D01*
X105045000Y-77250000D01*
G37*
X105045000Y-77250000D02*
X76465000Y-77250000D01*
X76465000Y-74521442D01*
X76919509Y-74521442D01*
X77350202Y-75563801D01*
X78147005Y-76361995D01*
X79188610Y-76794507D01*
X80316442Y-76795491D01*
X81358801Y-76364798D01*
X82156995Y-75567995D01*
X82589507Y-74526390D01*
X82589511Y-74521442D01*
X98919509Y-74521442D01*
X99350202Y-75563801D01*
X100147005Y-76361995D01*
X101188610Y-76794507D01*
X102316442Y-76795491D01*
X103358801Y-76364798D01*
X104156995Y-75567995D01*
X104589507Y-74526390D01*
X104590491Y-73398558D01*
X104159798Y-72356199D01*
X103362995Y-71558005D01*
X102321390Y-71125493D01*
X101193558Y-71124509D01*
X100151199Y-71555202D01*
X99353005Y-72352005D01*
X98920493Y-73393610D01*
X98919509Y-74521442D01*
X82589511Y-74521442D01*
X82590491Y-73398558D01*
X82159798Y-72356199D01*
X81362995Y-71558005D01*
X80321390Y-71125493D01*
X79193558Y-71124509D01*
X78151199Y-71555202D01*
X77353005Y-72352005D01*
X76920493Y-73393610D01*
X76919509Y-74521442D01*
X76465000Y-74521442D01*
X76465000Y-69215000D01*
X88007041Y-69215000D01*
X88121115Y-69788489D01*
X88445971Y-70274670D01*
X88760752Y-70485000D01*
X88445971Y-70695330D01*
X88121115Y-71181511D01*
X88007041Y-71755000D01*
X88121115Y-72328489D01*
X88445971Y-72814670D01*
X88932152Y-73139526D01*
X89505641Y-73253600D01*
X89564359Y-73253600D01*
X90137848Y-73139526D01*
X90603442Y-72828426D01*
X90608238Y-72853917D01*
X90747310Y-73070041D01*
X90959510Y-73215031D01*
X91211400Y-73266040D01*
X92938600Y-73266040D01*
X93173917Y-73221762D01*
X93390041Y-73082690D01*
X93535031Y-72870490D01*
X93586040Y-72618600D01*
X93586040Y-70891400D01*
X93541762Y-70656083D01*
X93402690Y-70439959D01*
X93190490Y-70294969D01*
X93146869Y-70286136D01*
X93164029Y-70274670D01*
X93488885Y-69788489D01*
X93602959Y-69215000D01*
X93488885Y-68641511D01*
X93164029Y-68155330D01*
X92849248Y-67945000D01*
X93164029Y-67734670D01*
X93488885Y-67248489D01*
X93602959Y-66675000D01*
X93488885Y-66101511D01*
X93164029Y-65615330D01*
X92677848Y-65290474D01*
X92104359Y-65176400D01*
X92045641Y-65176400D01*
X91472152Y-65290474D01*
X90985971Y-65615330D01*
X90805008Y-65886161D01*
X90423490Y-65468179D01*
X89894027Y-65220032D01*
X89662000Y-65340531D01*
X89662000Y-66548000D01*
X89682000Y-66548000D01*
X89682000Y-66802000D01*
X89662000Y-66802000D01*
X89662000Y-66822000D01*
X89408000Y-66822000D01*
X89408000Y-66802000D01*
X88201183Y-66802000D01*
X88080042Y-67034026D01*
X88252312Y-67449947D01*
X88646510Y-67881821D01*
X88769228Y-67939336D01*
X88445971Y-68155330D01*
X88121115Y-68641511D01*
X88007041Y-69215000D01*
X76465000Y-69215000D01*
X76465000Y-66315974D01*
X88080042Y-66315974D01*
X88201183Y-66548000D01*
X89408000Y-66548000D01*
X89408000Y-65340531D01*
X89175973Y-65220032D01*
X88646510Y-65468179D01*
X88252312Y-65900053D01*
X88080042Y-66315974D01*
X76465000Y-66315974D01*
X76465000Y-42521442D01*
X76919509Y-42521442D01*
X77350202Y-43563801D01*
X78147005Y-44361995D01*
X79188610Y-44794507D01*
X80316442Y-44795491D01*
X81358801Y-44364798D01*
X82114225Y-43610690D01*
X87520592Y-43610690D01*
X87685362Y-44009463D01*
X87990193Y-44314826D01*
X88388677Y-44480291D01*
X88820150Y-44480668D01*
X89218923Y-44315898D01*
X89524286Y-44011067D01*
X89689751Y-43612583D01*
X89689752Y-43610690D01*
X91919872Y-43610690D01*
X92084642Y-44009463D01*
X92389473Y-44314826D01*
X92787957Y-44480291D01*
X93219430Y-44480668D01*
X93618203Y-44315898D01*
X93923566Y-44011067D01*
X94089031Y-43612583D01*
X94089408Y-43181110D01*
X93924638Y-42782337D01*
X93664198Y-42521442D01*
X98919509Y-42521442D01*
X99350202Y-43563801D01*
X100147005Y-44361995D01*
X101188610Y-44794507D01*
X102316442Y-44795491D01*
X103358801Y-44364798D01*
X104156995Y-43567995D01*
X104589507Y-42526390D01*
X104590491Y-41398558D01*
X104159798Y-40356199D01*
X103362995Y-39558005D01*
X102321390Y-39125493D01*
X101193558Y-39124509D01*
X100151199Y-39555202D01*
X99353005Y-40352005D01*
X98920493Y-41393610D01*
X98919509Y-42521442D01*
X93664198Y-42521442D01*
X93619807Y-42476974D01*
X93221323Y-42311509D01*
X92789850Y-42311132D01*
X92391077Y-42475902D01*
X92085714Y-42780733D01*
X91920249Y-43179217D01*
X91919872Y-43610690D01*
X89689752Y-43610690D01*
X89690128Y-43181110D01*
X89525358Y-42782337D01*
X89220527Y-42476974D01*
X88822043Y-42311509D01*
X88390570Y-42311132D01*
X87991797Y-42475902D01*
X87686434Y-42780733D01*
X87520969Y-43179217D01*
X87520592Y-43610690D01*
X82114225Y-43610690D01*
X82156995Y-43567995D01*
X82589507Y-42526390D01*
X82590491Y-41398558D01*
X82159798Y-40356199D01*
X81362995Y-39558005D01*
X80321390Y-39125493D01*
X79193558Y-39124509D01*
X78151199Y-39555202D01*
X77353005Y-40352005D01*
X76920493Y-41393610D01*
X76919509Y-42521442D01*
X76465000Y-42521442D01*
X76465000Y-38670000D01*
X105045000Y-38670000D01*
X105045000Y-77250000D01*
M02*
