G04 #@! TF.FileFunction,Legend,Top*
%FSLAX46Y46*%
G04 Gerber Fmt 4.6, Leading zero omitted, Abs format (unit mm)*
G04 Created by KiCad (PCBNEW 4.0.6) date Sunday, July 09, 2017 'PMt' 08:53:28 PM*
%MOMM*%
%LPD*%
G01*
G04 APERTURE LIST*
%ADD10C,0.100000*%
%ADD11C,0.200000*%
%ADD12C,0.300000*%
%ADD13C,0.150000*%
%ADD14C,4.480000*%
%ADD15R,0.980000X1.280000*%
%ADD16R,1.680000X2.080000*%
%ADD17R,0.580380X2.381240*%
%ADD18R,2.078980X2.579360*%
%ADD19C,0.979160*%
%ADD20R,1.780000X0.730000*%
%ADD21R,1.080000X1.080000*%
%ADD22R,0.830000X1.280000*%
%ADD23R,1.807200X1.807200*%
%ADD24O,1.807200X1.807200*%
G04 APERTURE END LIST*
D10*
D11*
X84915714Y-71826429D02*
X85677619Y-71826429D01*
X85296667Y-72207381D02*
X85296667Y-71445476D01*
X86630000Y-71207381D02*
X86153809Y-71207381D01*
X86106190Y-71683571D01*
X86153809Y-71635952D01*
X86249047Y-71588333D01*
X86487143Y-71588333D01*
X86582381Y-71635952D01*
X86630000Y-71683571D01*
X86677619Y-71778810D01*
X86677619Y-72016905D01*
X86630000Y-72112143D01*
X86582381Y-72159762D01*
X86487143Y-72207381D01*
X86249047Y-72207381D01*
X86153809Y-72159762D01*
X86106190Y-72112143D01*
X87010952Y-71540714D02*
X87249047Y-72207381D01*
X87487143Y-71540714D01*
X94789524Y-67127381D02*
X94456190Y-66651190D01*
X94218095Y-67127381D02*
X94218095Y-66127381D01*
X94599048Y-66127381D01*
X94694286Y-66175000D01*
X94741905Y-66222619D01*
X94789524Y-66317857D01*
X94789524Y-66460714D01*
X94741905Y-66555952D01*
X94694286Y-66603571D01*
X94599048Y-66651190D01*
X94218095Y-66651190D01*
X95170476Y-67079762D02*
X95313333Y-67127381D01*
X95551429Y-67127381D01*
X95646667Y-67079762D01*
X95694286Y-67032143D01*
X95741905Y-66936905D01*
X95741905Y-66841667D01*
X95694286Y-66746429D01*
X95646667Y-66698810D01*
X95551429Y-66651190D01*
X95360952Y-66603571D01*
X95265714Y-66555952D01*
X95218095Y-66508333D01*
X95170476Y-66413095D01*
X95170476Y-66317857D01*
X95218095Y-66222619D01*
X95265714Y-66175000D01*
X95360952Y-66127381D01*
X95599048Y-66127381D01*
X95741905Y-66175000D01*
X96027619Y-66127381D02*
X96599048Y-66127381D01*
X96313333Y-67127381D02*
X96313333Y-66127381D01*
X94170476Y-69619762D02*
X94313333Y-69667381D01*
X94551429Y-69667381D01*
X94646667Y-69619762D01*
X94694286Y-69572143D01*
X94741905Y-69476905D01*
X94741905Y-69381667D01*
X94694286Y-69286429D01*
X94646667Y-69238810D01*
X94551429Y-69191190D01*
X94360952Y-69143571D01*
X94265714Y-69095952D01*
X94218095Y-69048333D01*
X94170476Y-68953095D01*
X94170476Y-68857857D01*
X94218095Y-68762619D01*
X94265714Y-68715000D01*
X94360952Y-68667381D01*
X94599048Y-68667381D01*
X94741905Y-68715000D01*
X95741905Y-69572143D02*
X95694286Y-69619762D01*
X95551429Y-69667381D01*
X95456191Y-69667381D01*
X95313333Y-69619762D01*
X95218095Y-69524524D01*
X95170476Y-69429286D01*
X95122857Y-69238810D01*
X95122857Y-69095952D01*
X95170476Y-68905476D01*
X95218095Y-68810238D01*
X95313333Y-68715000D01*
X95456191Y-68667381D01*
X95551429Y-68667381D01*
X95694286Y-68715000D01*
X95741905Y-68762619D01*
X96170476Y-69667381D02*
X96170476Y-68667381D01*
X96741905Y-69667381D02*
X96313333Y-69095952D01*
X96741905Y-68667381D02*
X96170476Y-69238810D01*
D12*
X78783571Y-70762857D02*
X77283571Y-70762857D01*
X78783571Y-70120000D02*
X77997857Y-70120000D01*
X77855000Y-70191429D01*
X77783571Y-70334286D01*
X77783571Y-70548571D01*
X77855000Y-70691429D01*
X77926429Y-70762857D01*
X77783571Y-69620000D02*
X77783571Y-69048571D01*
X77283571Y-69405714D02*
X78569286Y-69405714D01*
X78712143Y-69334286D01*
X78783571Y-69191428D01*
X78783571Y-69048571D01*
X77783571Y-68762857D02*
X77783571Y-68191428D01*
X77283571Y-68548571D02*
X78569286Y-68548571D01*
X78712143Y-68477143D01*
X78783571Y-68334285D01*
X78783571Y-68191428D01*
X77783571Y-67691428D02*
X79283571Y-67691428D01*
X77855000Y-67691428D02*
X77783571Y-67548571D01*
X77783571Y-67262857D01*
X77855000Y-67120000D01*
X77926429Y-67048571D01*
X78069286Y-66977142D01*
X78497857Y-66977142D01*
X78640714Y-67048571D01*
X78712143Y-67120000D01*
X78783571Y-67262857D01*
X78783571Y-67548571D01*
X78712143Y-67691428D01*
X78640714Y-66334285D02*
X78712143Y-66262857D01*
X78783571Y-66334285D01*
X78712143Y-66405714D01*
X78640714Y-66334285D01*
X78783571Y-66334285D01*
X77855000Y-66334285D02*
X77926429Y-66262857D01*
X77997857Y-66334285D01*
X77926429Y-66405714D01*
X77855000Y-66334285D01*
X77997857Y-66334285D01*
X77212143Y-64548571D02*
X79140714Y-65834285D01*
X77212143Y-62977142D02*
X79140714Y-64262856D01*
X77783571Y-62619998D02*
X78783571Y-62334284D01*
X78069286Y-62048570D01*
X78783571Y-61762855D01*
X77783571Y-61477141D01*
X77783571Y-61048569D02*
X78783571Y-60762855D01*
X78069286Y-60477141D01*
X78783571Y-60191426D01*
X77783571Y-59905712D01*
X77783571Y-59477140D02*
X78783571Y-59191426D01*
X78069286Y-58905712D01*
X78783571Y-58619997D01*
X77783571Y-58334283D01*
X78640714Y-57762854D02*
X78712143Y-57691426D01*
X78783571Y-57762854D01*
X78712143Y-57834283D01*
X78640714Y-57762854D01*
X78783571Y-57762854D01*
X78783571Y-56834282D02*
X78712143Y-56977140D01*
X78569286Y-57048568D01*
X77283571Y-57048568D01*
X77783571Y-56477140D02*
X77783571Y-55905711D01*
X78783571Y-56262854D02*
X77497857Y-56262854D01*
X77355000Y-56191426D01*
X77283571Y-56048568D01*
X77283571Y-55905711D01*
X78783571Y-55405711D02*
X77283571Y-55405711D01*
X78212143Y-55262854D02*
X78783571Y-54834283D01*
X77783571Y-54834283D02*
X78355000Y-55405711D01*
X77283571Y-54334282D02*
X77283571Y-53334282D01*
X78783571Y-53977139D01*
X77926429Y-52548568D02*
X77855000Y-52691426D01*
X77783571Y-52762854D01*
X77640714Y-52834283D01*
X77569286Y-52834283D01*
X77426429Y-52762854D01*
X77355000Y-52691426D01*
X77283571Y-52548568D01*
X77283571Y-52262854D01*
X77355000Y-52119997D01*
X77426429Y-52048568D01*
X77569286Y-51977140D01*
X77640714Y-51977140D01*
X77783571Y-52048568D01*
X77855000Y-52119997D01*
X77926429Y-52262854D01*
X77926429Y-52548568D01*
X77997857Y-52691426D01*
X78069286Y-52762854D01*
X78212143Y-52834283D01*
X78497857Y-52834283D01*
X78640714Y-52762854D01*
X78712143Y-52691426D01*
X78783571Y-52548568D01*
X78783571Y-52262854D01*
X78712143Y-52119997D01*
X78640714Y-52048568D01*
X78497857Y-51977140D01*
X78212143Y-51977140D01*
X78069286Y-52048568D01*
X77997857Y-52119997D01*
X77926429Y-52262854D01*
X78640714Y-51334283D02*
X78712143Y-51262855D01*
X78783571Y-51334283D01*
X78712143Y-51405712D01*
X78640714Y-51334283D01*
X78783571Y-51334283D01*
X78712143Y-49977140D02*
X78783571Y-50119997D01*
X78783571Y-50405711D01*
X78712143Y-50548569D01*
X78640714Y-50619997D01*
X78497857Y-50691426D01*
X78069286Y-50691426D01*
X77926429Y-50619997D01*
X77855000Y-50548569D01*
X77783571Y-50405711D01*
X77783571Y-50119997D01*
X77855000Y-49977140D01*
X78783571Y-49119997D02*
X78712143Y-49262855D01*
X78640714Y-49334283D01*
X78497857Y-49405712D01*
X78069286Y-49405712D01*
X77926429Y-49334283D01*
X77855000Y-49262855D01*
X77783571Y-49119997D01*
X77783571Y-48905712D01*
X77855000Y-48762855D01*
X77926429Y-48691426D01*
X78069286Y-48619997D01*
X78497857Y-48619997D01*
X78640714Y-48691426D01*
X78712143Y-48762855D01*
X78783571Y-48905712D01*
X78783571Y-49119997D01*
X78783571Y-47977140D02*
X77783571Y-47977140D01*
X77926429Y-47977140D02*
X77855000Y-47905712D01*
X77783571Y-47762854D01*
X77783571Y-47548569D01*
X77855000Y-47405712D01*
X77997857Y-47334283D01*
X78783571Y-47334283D01*
X77997857Y-47334283D02*
X77855000Y-47262854D01*
X77783571Y-47119997D01*
X77783571Y-46905712D01*
X77855000Y-46762854D01*
X77997857Y-46691426D01*
X78783571Y-46691426D01*
X77212143Y-44905712D02*
X79140714Y-46191426D01*
D11*
X87348553Y-57150000D02*
G75*
G03X87348553Y-57150000I-353553J0D01*
G01*
D12*
X102048571Y-65262143D02*
X102048571Y-64405000D01*
X103548571Y-64833571D02*
X102048571Y-64833571D01*
X103548571Y-63905000D02*
X102548571Y-63905000D01*
X102048571Y-63905000D02*
X102120000Y-63976429D01*
X102191429Y-63905000D01*
X102120000Y-63833572D01*
X102048571Y-63905000D01*
X102191429Y-63905000D01*
X102548571Y-63190714D02*
X103548571Y-63190714D01*
X102691429Y-63190714D02*
X102620000Y-63119286D01*
X102548571Y-62976428D01*
X102548571Y-62762143D01*
X102620000Y-62619286D01*
X102762857Y-62547857D01*
X103548571Y-62547857D01*
X102548571Y-61976428D02*
X103548571Y-61619285D01*
X102548571Y-61262143D02*
X103548571Y-61619285D01*
X103905714Y-61762143D01*
X103977143Y-61833571D01*
X104048571Y-61976428D01*
X103548571Y-59547857D02*
X102048571Y-59547857D01*
X103477143Y-58905000D02*
X103548571Y-58690714D01*
X103548571Y-58333571D01*
X103477143Y-58190714D01*
X103405714Y-58119285D01*
X103262857Y-58047857D01*
X103120000Y-58047857D01*
X102977143Y-58119285D01*
X102905714Y-58190714D01*
X102834286Y-58333571D01*
X102762857Y-58619285D01*
X102691429Y-58762143D01*
X102620000Y-58833571D01*
X102477143Y-58905000D01*
X102334286Y-58905000D01*
X102191429Y-58833571D01*
X102120000Y-58762143D01*
X102048571Y-58619285D01*
X102048571Y-58262143D01*
X102120000Y-58047857D01*
X103548571Y-57405000D02*
X102048571Y-57405000D01*
X102048571Y-56833572D01*
X102120000Y-56690714D01*
X102191429Y-56619286D01*
X102334286Y-56547857D01*
X102548571Y-56547857D01*
X102691429Y-56619286D01*
X102762857Y-56690714D01*
X102834286Y-56833572D01*
X102834286Y-57405000D01*
X103548571Y-53905000D02*
X102834286Y-54405000D01*
X103548571Y-54762143D02*
X102048571Y-54762143D01*
X102048571Y-54190715D01*
X102120000Y-54047857D01*
X102191429Y-53976429D01*
X102334286Y-53905000D01*
X102548571Y-53905000D01*
X102691429Y-53976429D01*
X102762857Y-54047857D01*
X102834286Y-54190715D01*
X102834286Y-54762143D01*
X103477143Y-52690715D02*
X103548571Y-52833572D01*
X103548571Y-53119286D01*
X103477143Y-53262143D01*
X103334286Y-53333572D01*
X102762857Y-53333572D01*
X102620000Y-53262143D01*
X102548571Y-53119286D01*
X102548571Y-52833572D01*
X102620000Y-52690715D01*
X102762857Y-52619286D01*
X102905714Y-52619286D01*
X103048571Y-53333572D01*
X102548571Y-52119286D02*
X103548571Y-51762143D01*
X102548571Y-51405001D01*
X103405714Y-49976429D02*
X103477143Y-50047858D01*
X103548571Y-50262144D01*
X103548571Y-50405001D01*
X103477143Y-50619286D01*
X103334286Y-50762144D01*
X103191429Y-50833572D01*
X102905714Y-50905001D01*
X102691429Y-50905001D01*
X102405714Y-50833572D01*
X102262857Y-50762144D01*
X102120000Y-50619286D01*
X102048571Y-50405001D01*
X102048571Y-50262144D01*
X102120000Y-50047858D01*
X102191429Y-49976429D01*
D11*
X84249048Y-69667381D02*
X84249048Y-68667381D01*
X84582382Y-69381667D01*
X84915715Y-68667381D01*
X84915715Y-69667381D01*
X85582381Y-68667381D02*
X85772858Y-68667381D01*
X85868096Y-68715000D01*
X85963334Y-68810238D01*
X86010953Y-69000714D01*
X86010953Y-69334048D01*
X85963334Y-69524524D01*
X85868096Y-69619762D01*
X85772858Y-69667381D01*
X85582381Y-69667381D01*
X85487143Y-69619762D01*
X85391905Y-69524524D01*
X85344286Y-69334048D01*
X85344286Y-69000714D01*
X85391905Y-68810238D01*
X85487143Y-68715000D01*
X85582381Y-68667381D01*
X86391905Y-69619762D02*
X86534762Y-69667381D01*
X86772858Y-69667381D01*
X86868096Y-69619762D01*
X86915715Y-69572143D01*
X86963334Y-69476905D01*
X86963334Y-69381667D01*
X86915715Y-69286429D01*
X86868096Y-69238810D01*
X86772858Y-69191190D01*
X86582381Y-69143571D01*
X86487143Y-69095952D01*
X86439524Y-69048333D01*
X86391905Y-68953095D01*
X86391905Y-68857857D01*
X86439524Y-68762619D01*
X86487143Y-68715000D01*
X86582381Y-68667381D01*
X86820477Y-68667381D01*
X86963334Y-68715000D01*
X87391905Y-69667381D02*
X87391905Y-68667381D01*
X85344286Y-66175000D02*
X85249048Y-66127381D01*
X85106191Y-66127381D01*
X84963333Y-66175000D01*
X84868095Y-66270238D01*
X84820476Y-66365476D01*
X84772857Y-66555952D01*
X84772857Y-66698810D01*
X84820476Y-66889286D01*
X84868095Y-66984524D01*
X84963333Y-67079762D01*
X85106191Y-67127381D01*
X85201429Y-67127381D01*
X85344286Y-67079762D01*
X85391905Y-67032143D01*
X85391905Y-66698810D01*
X85201429Y-66698810D01*
X85820476Y-67127381D02*
X85820476Y-66127381D01*
X86391905Y-67127381D01*
X86391905Y-66127381D01*
X86868095Y-67127381D02*
X86868095Y-66127381D01*
X87106190Y-66127381D01*
X87249048Y-66175000D01*
X87344286Y-66270238D01*
X87391905Y-66365476D01*
X87439524Y-66555952D01*
X87439524Y-66698810D01*
X87391905Y-66889286D01*
X87344286Y-66984524D01*
X87249048Y-67079762D01*
X87106190Y-67127381D01*
X86868095Y-67127381D01*
X94218095Y-72207381D02*
X94218095Y-71207381D01*
X94551429Y-71921667D01*
X94884762Y-71207381D01*
X94884762Y-72207381D01*
X95360952Y-72207381D02*
X95360952Y-71207381D01*
X95789523Y-72159762D02*
X95932380Y-72207381D01*
X96170476Y-72207381D01*
X96265714Y-72159762D01*
X96313333Y-72112143D01*
X96360952Y-72016905D01*
X96360952Y-71921667D01*
X96313333Y-71826429D01*
X96265714Y-71778810D01*
X96170476Y-71731190D01*
X95979999Y-71683571D01*
X95884761Y-71635952D01*
X95837142Y-71588333D01*
X95789523Y-71493095D01*
X95789523Y-71397857D01*
X95837142Y-71302619D01*
X95884761Y-71255000D01*
X95979999Y-71207381D01*
X96218095Y-71207381D01*
X96360952Y-71255000D01*
X96979999Y-71207381D02*
X97170476Y-71207381D01*
X97265714Y-71255000D01*
X97360952Y-71350238D01*
X97408571Y-71540714D01*
X97408571Y-71874048D01*
X97360952Y-72064524D01*
X97265714Y-72159762D01*
X97170476Y-72207381D01*
X96979999Y-72207381D01*
X96884761Y-72159762D01*
X96789523Y-72064524D01*
X96741904Y-71874048D01*
X96741904Y-71540714D01*
X96789523Y-71350238D01*
X96884761Y-71255000D01*
X96979999Y-71207381D01*
D13*
X92570000Y-52600000D02*
X92570000Y-53600000D01*
X91220000Y-53600000D02*
X91220000Y-52600000D01*
X97730000Y-48960000D02*
X97730000Y-50960000D01*
X99780000Y-50960000D02*
X99780000Y-48960000D01*
X94655640Y-38945820D02*
X86954360Y-38945820D01*
X94655640Y-37945060D02*
X86954360Y-37945060D01*
X86954360Y-37945060D02*
X86954360Y-47144940D01*
X86954360Y-47144940D02*
X94655640Y-47144940D01*
X94655640Y-47144940D02*
X94655640Y-37945060D01*
X88055000Y-57570000D02*
X88055000Y-57775000D01*
X93555000Y-57570000D02*
X93555000Y-57870000D01*
X93555000Y-63080000D02*
X93555000Y-62780000D01*
X88055000Y-63080000D02*
X88055000Y-62780000D01*
X88055000Y-57570000D02*
X93555000Y-57570000D01*
X88055000Y-63080000D02*
X93555000Y-63080000D01*
X88055000Y-57775000D02*
X86305000Y-57775000D01*
X91845000Y-50900000D02*
X93945000Y-50900000D01*
X91845000Y-49300000D02*
X93945000Y-49300000D01*
X90445000Y-49300000D02*
X88345000Y-49300000D01*
X90445000Y-50900000D02*
X88345000Y-50900000D01*
X91070000Y-52600000D02*
X91070000Y-53600000D01*
X89720000Y-53600000D02*
X89720000Y-52600000D01*
X95320000Y-52600000D02*
X95320000Y-53600000D01*
X93970000Y-53600000D02*
X93970000Y-52600000D01*
X98355000Y-58610000D02*
X98355000Y-59310000D01*
X97155000Y-59310000D02*
X97155000Y-58610000D01*
X93345000Y-70485000D02*
X93345000Y-65405000D01*
X93625000Y-73305000D02*
X92075000Y-73305000D01*
X90805000Y-73025000D02*
X90805000Y-70485000D01*
X90805000Y-70485000D02*
X93345000Y-70485000D01*
X93345000Y-65405000D02*
X88265000Y-65405000D01*
X88265000Y-65405000D02*
X88265000Y-70485000D01*
X93625000Y-73305000D02*
X93625000Y-71755000D01*
X88265000Y-73025000D02*
X90805000Y-73025000D01*
X88265000Y-70485000D02*
X88265000Y-73025000D01*
X92324181Y-55945066D02*
X91847990Y-56278400D01*
X92324181Y-56516495D02*
X91324181Y-56516495D01*
X91324181Y-56135542D01*
X91371800Y-56040304D01*
X91419419Y-55992685D01*
X91514657Y-55945066D01*
X91657514Y-55945066D01*
X91752752Y-55992685D01*
X91800371Y-56040304D01*
X91847990Y-56135542D01*
X91847990Y-56516495D01*
X91324181Y-55611733D02*
X91324181Y-54992685D01*
X91705133Y-55326019D01*
X91705133Y-55183161D01*
X91752752Y-55087923D01*
X91800371Y-55040304D01*
X91895610Y-54992685D01*
X92133705Y-54992685D01*
X92228943Y-55040304D01*
X92276562Y-55087923D01*
X92324181Y-55183161D01*
X92324181Y-55468876D01*
X92276562Y-55564114D01*
X92228943Y-55611733D01*
X100487171Y-50320533D02*
X100487171Y-50653867D01*
X101010981Y-50653867D02*
X100010981Y-50653867D01*
X100010981Y-50177676D01*
X101010981Y-49272914D02*
X101010981Y-49844343D01*
X101010981Y-49558629D02*
X100010981Y-49558629D01*
X100153838Y-49653867D01*
X100249076Y-49749105D01*
X100296695Y-49844343D01*
X88355610Y-64358781D02*
X88355610Y-63358781D01*
X89403229Y-64263543D02*
X89355610Y-64311162D01*
X89212753Y-64358781D01*
X89117515Y-64358781D01*
X88974657Y-64311162D01*
X88879419Y-64215924D01*
X88831800Y-64120686D01*
X88784181Y-63930210D01*
X88784181Y-63787352D01*
X88831800Y-63596876D01*
X88879419Y-63501638D01*
X88974657Y-63406400D01*
X89117515Y-63358781D01*
X89212753Y-63358781D01*
X89355610Y-63406400D01*
X89403229Y-63454019D01*
X90355610Y-64358781D02*
X89784181Y-64358781D01*
X90069895Y-64358781D02*
X90069895Y-63358781D01*
X89974657Y-63501638D01*
X89879419Y-63596876D01*
X89784181Y-63644495D01*
X95406905Y-50552381D02*
X95406905Y-49552381D01*
X95645000Y-49552381D01*
X95787858Y-49600000D01*
X95883096Y-49695238D01*
X95930715Y-49790476D01*
X95978334Y-49980952D01*
X95978334Y-50123810D01*
X95930715Y-50314286D01*
X95883096Y-50409524D01*
X95787858Y-50504762D01*
X95645000Y-50552381D01*
X95406905Y-50552381D01*
X96359286Y-49647619D02*
X96406905Y-49600000D01*
X96502143Y-49552381D01*
X96740239Y-49552381D01*
X96835477Y-49600000D01*
X96883096Y-49647619D01*
X96930715Y-49742857D01*
X96930715Y-49838095D01*
X96883096Y-49980952D01*
X96311667Y-50552381D01*
X96930715Y-50552381D01*
X85656905Y-50552381D02*
X85656905Y-49552381D01*
X85895000Y-49552381D01*
X86037858Y-49600000D01*
X86133096Y-49695238D01*
X86180715Y-49790476D01*
X86228334Y-49980952D01*
X86228334Y-50123810D01*
X86180715Y-50314286D01*
X86133096Y-50409524D01*
X86037858Y-50504762D01*
X85895000Y-50552381D01*
X85656905Y-50552381D01*
X87180715Y-50552381D02*
X86609286Y-50552381D01*
X86895000Y-50552381D02*
X86895000Y-49552381D01*
X86799762Y-49695238D01*
X86704524Y-49790476D01*
X86609286Y-49838095D01*
X90850981Y-55945066D02*
X90374790Y-56278400D01*
X90850981Y-56516495D02*
X89850981Y-56516495D01*
X89850981Y-56135542D01*
X89898600Y-56040304D01*
X89946219Y-55992685D01*
X90041457Y-55945066D01*
X90184314Y-55945066D01*
X90279552Y-55992685D01*
X90327171Y-56040304D01*
X90374790Y-56135542D01*
X90374790Y-56516495D01*
X89946219Y-55564114D02*
X89898600Y-55516495D01*
X89850981Y-55421257D01*
X89850981Y-55183161D01*
X89898600Y-55087923D01*
X89946219Y-55040304D01*
X90041457Y-54992685D01*
X90136695Y-54992685D01*
X90279552Y-55040304D01*
X90850981Y-55611733D01*
X90850981Y-54992685D01*
X95118181Y-55945066D02*
X94641990Y-56278400D01*
X95118181Y-56516495D02*
X94118181Y-56516495D01*
X94118181Y-56135542D01*
X94165800Y-56040304D01*
X94213419Y-55992685D01*
X94308657Y-55945066D01*
X94451514Y-55945066D01*
X94546752Y-55992685D01*
X94594371Y-56040304D01*
X94641990Y-56135542D01*
X94641990Y-56516495D01*
X95118181Y-54992685D02*
X95118181Y-55564114D01*
X95118181Y-55278400D02*
X94118181Y-55278400D01*
X94261038Y-55373638D01*
X94356276Y-55468876D01*
X94403895Y-55564114D01*
X99612143Y-59126666D02*
X99659762Y-59174285D01*
X99707381Y-59317142D01*
X99707381Y-59412380D01*
X99659762Y-59555238D01*
X99564524Y-59650476D01*
X99469286Y-59698095D01*
X99278810Y-59745714D01*
X99135952Y-59745714D01*
X98945476Y-59698095D01*
X98850238Y-59650476D01*
X98755000Y-59555238D01*
X98707381Y-59412380D01*
X98707381Y-59317142D01*
X98755000Y-59174285D01*
X98802619Y-59126666D01*
X99707381Y-58174285D02*
X99707381Y-58745714D01*
X99707381Y-58460000D02*
X98707381Y-58460000D01*
X98850238Y-58555238D01*
X98945476Y-58650476D01*
X98993095Y-58745714D01*
%LPC*%
D14*
X101755000Y-73960000D03*
X79755000Y-73960000D03*
X101755000Y-41960000D03*
D15*
X91895000Y-54200000D03*
X91895000Y-52000000D03*
D16*
X98755000Y-51960000D03*
X98755000Y-47960000D03*
D17*
X92405200Y-45994320D03*
X91605100Y-45994320D03*
X90805000Y-45994320D03*
X90004900Y-45994320D03*
X89204800Y-45994320D03*
D18*
X95255080Y-45895260D03*
X95255080Y-40396160D03*
X86354920Y-45895260D03*
X86354920Y-40396160D03*
D19*
X93004640Y-43395900D03*
X88605360Y-43395900D03*
D20*
X87155000Y-58420000D03*
X87155000Y-59690000D03*
X87155000Y-60960000D03*
X87155000Y-62230000D03*
X94455000Y-62230000D03*
X94455000Y-60960000D03*
X94455000Y-59690000D03*
X94455000Y-58420000D03*
D21*
X91895000Y-50100000D03*
X94395000Y-50100000D03*
X90395000Y-50100000D03*
X87895000Y-50100000D03*
D15*
X90395000Y-54200000D03*
X90395000Y-52000000D03*
X94645000Y-54200000D03*
X94645000Y-52000000D03*
D22*
X97755000Y-58010000D03*
X97755000Y-59910000D03*
D23*
X92075000Y-71755000D03*
D24*
X89535000Y-71755000D03*
X92075000Y-69215000D03*
X89535000Y-69215000D03*
X92075000Y-66675000D03*
X89535000Y-66675000D03*
D14*
X79755000Y-41960000D03*
M02*
