G04 #@! TF.FileFunction,Copper,L1,Top,Signal*
%FSLAX46Y46*%
G04 Gerber Fmt 4.6, Leading zero omitted, Abs format (unit mm)*
G04 Created by KiCad (PCBNEW 4.0.6) date Sunday, July 09, 2017 'PMt' 08:53:28 PM*
%MOMM*%
%LPD*%
G01*
G04 APERTURE LIST*
%ADD10C,0.100000*%
%ADD11C,4.400000*%
%ADD12C,0.600000*%
%ADD13R,0.900000X1.200000*%
%ADD14R,1.600000X2.000000*%
%ADD15R,0.500380X2.301240*%
%ADD16R,1.998980X2.499360*%
%ADD17R,1.700000X0.650000*%
%ADD18R,1.000000X1.000000*%
%ADD19R,0.750000X1.200000*%
%ADD20R,1.727200X1.727200*%
%ADD21O,1.727200X1.727200*%
%ADD22C,0.508000*%
%ADD23C,0.254000*%
%ADD24C,0.177800*%
G04 APERTURE END LIST*
D10*
D11*
X101755000Y-73960000D03*
X79755000Y-73960000D03*
X101755000Y-41960000D03*
D12*
X96255000Y-55960000D03*
D13*
X91895000Y-54200000D03*
X91895000Y-52000000D03*
D12*
X97155000Y-40386000D03*
X97155000Y-45212000D03*
X84455000Y-45720000D03*
X84455000Y-40386000D03*
X93218000Y-51054000D03*
X93218000Y-54356000D03*
X92329000Y-55880000D03*
X90043000Y-55880000D03*
X92329000Y-48260000D03*
X90043000Y-48260000D03*
X87755000Y-63960000D03*
D14*
X98755000Y-51960000D03*
X98755000Y-47960000D03*
D15*
X92405200Y-45994320D03*
X91605100Y-45994320D03*
X90805000Y-45994320D03*
X90004900Y-45994320D03*
X89204800Y-45994320D03*
D16*
X95255080Y-45895260D03*
X95255080Y-40396160D03*
X86354920Y-45895260D03*
X86354920Y-40396160D03*
D17*
X87155000Y-58420000D03*
X87155000Y-59690000D03*
X87155000Y-60960000D03*
X87155000Y-62230000D03*
X94455000Y-62230000D03*
X94455000Y-60960000D03*
X94455000Y-59690000D03*
X94455000Y-58420000D03*
D18*
X91895000Y-50100000D03*
X94395000Y-50100000D03*
X90395000Y-50100000D03*
X87895000Y-50100000D03*
D13*
X90395000Y-54200000D03*
X90395000Y-52000000D03*
X94645000Y-54200000D03*
X94645000Y-52000000D03*
D19*
X97755000Y-58010000D03*
X97755000Y-59910000D03*
D20*
X92075000Y-71755000D03*
D21*
X89535000Y-71755000D03*
X92075000Y-69215000D03*
X89535000Y-69215000D03*
X92075000Y-66675000D03*
X89535000Y-66675000D03*
D11*
X79755000Y-41960000D03*
D22*
X96520000Y-58420000D02*
X97345000Y-58420000D01*
X90855801Y-73075801D02*
X90398599Y-72618599D01*
X94455000Y-58420000D02*
X96520000Y-58420000D01*
X96520000Y-58420000D02*
X96520000Y-69860162D01*
X96520000Y-69860162D02*
X93304361Y-73075801D01*
X93304361Y-73075801D02*
X90855801Y-73075801D01*
X90398599Y-72618599D02*
X89535000Y-71755000D01*
X96795000Y-54200000D02*
X96795000Y-54120000D01*
X96795000Y-54120000D02*
X98755000Y-52160000D01*
X98755000Y-52160000D02*
X98755000Y-51960000D01*
X93727038Y-58420000D02*
X94455000Y-58420000D01*
X96795000Y-54200000D02*
X97755000Y-55160000D01*
X97755000Y-55160000D02*
X97755000Y-58010000D01*
X97345000Y-58420000D02*
X97755000Y-58010000D01*
X94645000Y-54200000D02*
X96795000Y-54200000D01*
D23*
X89204800Y-45994320D02*
X86453980Y-45994320D01*
X86453980Y-45994320D02*
X86354920Y-45895260D01*
X87895000Y-50100000D02*
X87895000Y-51446000D01*
X87895000Y-51446000D02*
X89535000Y-53086000D01*
X89535000Y-53086000D02*
X95885000Y-53086000D01*
X94395000Y-50100000D02*
X95532435Y-50100000D01*
X95532435Y-50100000D02*
X95885000Y-50452565D01*
X95885000Y-50452565D02*
X95885000Y-53086000D01*
X95885000Y-53086000D02*
X93345000Y-53086000D01*
D24*
X90805000Y-45994320D02*
X90928867Y-46118187D01*
X90928867Y-46118187D02*
X90928867Y-47135693D01*
X90928867Y-47135693D02*
X91022946Y-47229772D01*
X91022946Y-47229772D02*
X91022946Y-49588497D01*
X91022946Y-49588497D02*
X90511443Y-50100000D01*
X90511443Y-50100000D02*
X90395000Y-50100000D01*
X90395000Y-50100000D02*
X90510876Y-50100000D01*
X90510876Y-50100000D02*
X90956792Y-50545916D01*
X90956792Y-50545916D02*
X90956792Y-51412634D01*
X90956792Y-51412634D02*
X90395000Y-51974426D01*
X90395000Y-51974426D02*
X90395000Y-52000000D01*
X91605100Y-45994320D02*
X91605100Y-47010096D01*
X91605100Y-47010096D02*
X91397576Y-47217620D01*
X91397576Y-47217620D02*
X91397576Y-49712343D01*
X91895000Y-52000000D02*
X94645000Y-52000000D01*
X91397576Y-49712343D02*
X91785233Y-50100000D01*
X91785233Y-50100000D02*
X91895000Y-50100000D01*
X91895000Y-50100000D02*
X91794237Y-50100000D01*
X91794237Y-50100000D02*
X91314857Y-50579380D01*
X91895000Y-51976045D02*
X91895000Y-52000000D01*
X91314857Y-50579380D02*
X91314857Y-51395902D01*
X91314857Y-51395902D02*
X91895000Y-51976045D01*
D22*
X92405200Y-45994320D02*
X92405200Y-46894750D01*
X92405200Y-46894750D02*
X93470450Y-47960000D01*
X93470450Y-47960000D02*
X98755000Y-47960000D01*
X92405200Y-45994320D02*
X92405200Y-45678768D01*
D23*
X92075000Y-66675000D02*
X90881199Y-67868801D01*
X90881199Y-67868801D02*
X88961975Y-67868801D01*
X88961975Y-67868801D02*
X85974799Y-64881625D01*
X85974799Y-64881625D02*
X85974799Y-59075201D01*
X85974799Y-59075201D02*
X86630000Y-58420000D01*
X86630000Y-58420000D02*
X87155000Y-58420000D01*
D24*
X87155000Y-59690000D02*
X87680000Y-59690000D01*
X87680000Y-59690000D02*
X90635101Y-56734899D01*
X90635101Y-56734899D02*
X90635101Y-55217901D01*
X90635101Y-55217901D02*
X90395000Y-54977800D01*
X90395000Y-54977800D02*
X90395000Y-54200000D01*
X87155000Y-60960000D02*
X87680000Y-60960000D01*
X87680000Y-60960000D02*
X91267200Y-57372800D01*
X91267200Y-57372800D02*
X91267200Y-54977800D01*
X91267200Y-54977800D02*
X91895000Y-54350000D01*
X91895000Y-54350000D02*
X91895000Y-54200000D01*
D23*
X94455000Y-62230000D02*
X94455000Y-68601826D01*
X94455000Y-68601826D02*
X92571826Y-70485000D01*
X90805000Y-70485000D02*
X90398599Y-70078599D01*
X92571826Y-70485000D02*
X90805000Y-70485000D01*
X90398599Y-70078599D02*
X89535000Y-69215000D01*
X89382600Y-69215000D02*
X89611199Y-68986401D01*
X92075000Y-71755000D02*
X93192600Y-71755000D01*
X93192600Y-71755000D02*
X95635201Y-69312399D01*
X95635201Y-69312399D02*
X95635201Y-61615201D01*
X95635201Y-61615201D02*
X94980000Y-60960000D01*
X94980000Y-60960000D02*
X94455000Y-60960000D01*
X93930000Y-60960000D02*
X94455000Y-60960000D01*
X92075000Y-69215000D02*
X93274799Y-68015201D01*
X93274799Y-68015201D02*
X93274799Y-60345201D01*
X93274799Y-60345201D02*
X93930000Y-59690000D01*
X93930000Y-59690000D02*
X94455000Y-59690000D01*
X94980000Y-59690000D02*
X94455000Y-59690000D01*
G36*
X105172000Y-77377000D02*
X76338000Y-77377000D01*
X76338000Y-74496291D01*
X77046531Y-74496291D01*
X77457931Y-75491955D01*
X78219038Y-76254392D01*
X79213982Y-76667529D01*
X80291291Y-76668469D01*
X81286955Y-76257069D01*
X82049392Y-75495962D01*
X82462529Y-74501018D01*
X82462533Y-74496291D01*
X99046531Y-74496291D01*
X99457931Y-75491955D01*
X100219038Y-76254392D01*
X101213982Y-76667529D01*
X102291291Y-76668469D01*
X103286955Y-76257069D01*
X104049392Y-75495962D01*
X104462529Y-74501018D01*
X104463469Y-73423709D01*
X104052069Y-72428045D01*
X103290962Y-71665608D01*
X102296018Y-71252471D01*
X101218709Y-71251531D01*
X100223045Y-71662931D01*
X99460608Y-72424038D01*
X99047471Y-73418982D01*
X99046531Y-74496291D01*
X82462533Y-74496291D01*
X82463469Y-73423709D01*
X82052069Y-72428045D01*
X81290962Y-71665608D01*
X80296018Y-71252471D01*
X79218709Y-71251531D01*
X78223045Y-71662931D01*
X77460608Y-72424038D01*
X77047471Y-73418982D01*
X77046531Y-74496291D01*
X76338000Y-74496291D01*
X76338000Y-59075201D01*
X85339799Y-59075201D01*
X85339799Y-64881625D01*
X85388135Y-65124629D01*
X85525786Y-65330638D01*
X88499015Y-68303867D01*
X88240936Y-68690111D01*
X88136529Y-69215000D01*
X88240936Y-69739889D01*
X88538261Y-70184868D01*
X88983240Y-70482193D01*
X88997352Y-70485000D01*
X88983240Y-70487807D01*
X88538261Y-70785132D01*
X88240936Y-71230111D01*
X88136529Y-71755000D01*
X88240936Y-72279889D01*
X88538261Y-72724868D01*
X88983240Y-73022193D01*
X89508129Y-73126600D01*
X89561871Y-73126600D01*
X89784655Y-73082286D01*
X89859783Y-73157414D01*
X89859786Y-73157416D01*
X90316985Y-73614616D01*
X90564196Y-73779797D01*
X90855801Y-73837801D01*
X93304361Y-73837801D01*
X93595966Y-73779797D01*
X93843176Y-73614616D01*
X97058815Y-70398978D01*
X97223996Y-70151767D01*
X97264647Y-69947399D01*
X97282000Y-69860162D01*
X97282000Y-61018000D01*
X97564500Y-61018000D01*
X97691500Y-60891000D01*
X97691500Y-59973500D01*
X97818500Y-59973500D01*
X97818500Y-60891000D01*
X97945500Y-61018000D01*
X98231048Y-61018000D01*
X98417759Y-60940661D01*
X98560662Y-60797758D01*
X98638000Y-60611047D01*
X98638000Y-60100500D01*
X98511000Y-59973500D01*
X97818500Y-59973500D01*
X97691500Y-59973500D01*
X97671500Y-59973500D01*
X97671500Y-59846500D01*
X97691500Y-59846500D01*
X97691500Y-59826500D01*
X97818500Y-59826500D01*
X97818500Y-59846500D01*
X98511000Y-59846500D01*
X98638000Y-59719500D01*
X98638000Y-59208953D01*
X98560662Y-59022242D01*
X98502738Y-58964318D01*
X98607145Y-58811512D01*
X98647952Y-58610000D01*
X98647952Y-57410000D01*
X98612530Y-57221747D01*
X98517000Y-57073289D01*
X98517000Y-55160000D01*
X98458996Y-54868395D01*
X98293815Y-54621185D01*
X97832630Y-54160000D01*
X98514679Y-53477952D01*
X99555000Y-53477952D01*
X99743253Y-53442530D01*
X99916153Y-53331272D01*
X100032145Y-53161512D01*
X100072952Y-52960000D01*
X100072952Y-50960000D01*
X100037530Y-50771747D01*
X99926272Y-50598847D01*
X99756512Y-50482855D01*
X99555000Y-50442048D01*
X97955000Y-50442048D01*
X97766747Y-50477470D01*
X97593847Y-50588728D01*
X97477855Y-50758488D01*
X97437048Y-50960000D01*
X97437048Y-52400321D01*
X96399370Y-53438000D01*
X95582470Y-53438000D01*
X95577530Y-53411747D01*
X95466272Y-53238847D01*
X95296512Y-53122855D01*
X95186905Y-53100659D01*
X95283253Y-53082530D01*
X95456153Y-52971272D01*
X95572145Y-52801512D01*
X95612952Y-52600000D01*
X95612952Y-51400000D01*
X95577530Y-51211747D01*
X95466272Y-51038847D01*
X95296512Y-50922855D01*
X95291566Y-50921854D01*
X95325661Y-50887759D01*
X95403000Y-50701048D01*
X95403000Y-50290500D01*
X95276000Y-50163500D01*
X94458500Y-50163500D01*
X94458500Y-50183500D01*
X94331500Y-50183500D01*
X94331500Y-50163500D01*
X93514000Y-50163500D01*
X93387000Y-50290500D01*
X93387000Y-50701048D01*
X93464339Y-50887759D01*
X93607242Y-51030662D01*
X93782831Y-51103393D01*
X93717855Y-51198488D01*
X93677048Y-51400000D01*
X93677048Y-51403100D01*
X92862952Y-51403100D01*
X92862952Y-51400000D01*
X92827530Y-51211747D01*
X92716272Y-51038847D01*
X92684682Y-51017262D01*
X92756153Y-50971272D01*
X92872145Y-50801512D01*
X92912952Y-50600000D01*
X92912952Y-49600000D01*
X92893939Y-49498952D01*
X93387000Y-49498952D01*
X93387000Y-49909500D01*
X93514000Y-50036500D01*
X94331500Y-50036500D01*
X94331500Y-49219000D01*
X94458500Y-49219000D01*
X94458500Y-50036500D01*
X95276000Y-50036500D01*
X95403000Y-49909500D01*
X95403000Y-49498952D01*
X95325661Y-49312241D01*
X95182758Y-49169338D01*
X94996047Y-49092000D01*
X94585500Y-49092000D01*
X94458500Y-49219000D01*
X94331500Y-49219000D01*
X94204500Y-49092000D01*
X93793953Y-49092000D01*
X93607242Y-49169338D01*
X93464339Y-49312241D01*
X93387000Y-49498952D01*
X92893939Y-49498952D01*
X92877530Y-49411747D01*
X92766272Y-49238847D01*
X92596512Y-49122855D01*
X92395000Y-49082048D01*
X91994476Y-49082048D01*
X91994476Y-47636703D01*
X92010652Y-47633659D01*
X92080655Y-47647835D01*
X92931635Y-48498815D01*
X93178845Y-48663996D01*
X93470450Y-48722000D01*
X97437048Y-48722000D01*
X97437048Y-48960000D01*
X97472470Y-49148253D01*
X97583728Y-49321153D01*
X97753488Y-49437145D01*
X97955000Y-49477952D01*
X99555000Y-49477952D01*
X99743253Y-49442530D01*
X99916153Y-49331272D01*
X100032145Y-49161512D01*
X100072952Y-48960000D01*
X100072952Y-46960000D01*
X100037530Y-46771747D01*
X99926272Y-46598847D01*
X99756512Y-46482855D01*
X99555000Y-46442048D01*
X97955000Y-46442048D01*
X97766747Y-46477470D01*
X97593847Y-46588728D01*
X97477855Y-46758488D01*
X97437048Y-46960000D01*
X97437048Y-47198000D01*
X96762570Y-47198000D01*
X96762570Y-46085760D01*
X96635570Y-45958760D01*
X95318580Y-45958760D01*
X95318580Y-45978760D01*
X95191580Y-45978760D01*
X95191580Y-45958760D01*
X93874590Y-45958760D01*
X93747590Y-46085760D01*
X93747590Y-47159510D01*
X93173342Y-46585262D01*
X93173342Y-44843700D01*
X93137920Y-44655447D01*
X93066549Y-44544533D01*
X93747590Y-44544533D01*
X93747590Y-45704760D01*
X93874590Y-45831760D01*
X95191580Y-45831760D01*
X95191580Y-44264580D01*
X95318580Y-44264580D01*
X95318580Y-45831760D01*
X96635570Y-45831760D01*
X96762570Y-45704760D01*
X96762570Y-44544533D01*
X96685232Y-44357822D01*
X96542329Y-44214919D01*
X96355618Y-44137580D01*
X95445580Y-44137580D01*
X95318580Y-44264580D01*
X95191580Y-44264580D01*
X95064580Y-44137580D01*
X94154542Y-44137580D01*
X93967831Y-44214919D01*
X93824928Y-44357822D01*
X93747590Y-44544533D01*
X93066549Y-44544533D01*
X93026662Y-44482547D01*
X92856902Y-44366555D01*
X92655390Y-44325748D01*
X92155010Y-44325748D01*
X91999648Y-44354981D01*
X91855290Y-44325748D01*
X91354910Y-44325748D01*
X91199548Y-44354981D01*
X91055190Y-44325748D01*
X90554810Y-44325748D01*
X90399448Y-44354981D01*
X90255090Y-44325748D01*
X89754710Y-44325748D01*
X89601575Y-44354562D01*
X89556038Y-44335700D01*
X89395300Y-44335700D01*
X89268300Y-44462700D01*
X89268300Y-44687940D01*
X89236758Y-44843700D01*
X89236758Y-47144940D01*
X89268300Y-47312572D01*
X89268300Y-47525940D01*
X89395300Y-47652940D01*
X89556038Y-47652940D01*
X89605136Y-47632603D01*
X89754710Y-47662892D01*
X90255090Y-47662892D01*
X90410452Y-47633659D01*
X90426046Y-47636817D01*
X90426046Y-49082048D01*
X89895000Y-49082048D01*
X89706747Y-49117470D01*
X89533847Y-49228728D01*
X89417855Y-49398488D01*
X89377048Y-49600000D01*
X89377048Y-50600000D01*
X89412470Y-50788253D01*
X89523728Y-50961153D01*
X89603819Y-51015877D01*
X89583847Y-51028728D01*
X89467855Y-51198488D01*
X89427048Y-51400000D01*
X89427048Y-52600000D01*
X89462470Y-52788253D01*
X89573728Y-52961153D01*
X89743488Y-53077145D01*
X89853095Y-53099341D01*
X89756747Y-53117470D01*
X89583847Y-53228728D01*
X89467855Y-53398488D01*
X89427048Y-53600000D01*
X89427048Y-54800000D01*
X89462470Y-54988253D01*
X89573728Y-55161153D01*
X89743488Y-55277145D01*
X89913995Y-55311673D01*
X89972928Y-55399872D01*
X90038201Y-55465145D01*
X90038201Y-56487655D01*
X88508367Y-58017489D01*
X88487530Y-57906747D01*
X88376272Y-57733847D01*
X88206512Y-57617855D01*
X88005000Y-57577048D01*
X86305000Y-57577048D01*
X86116747Y-57612470D01*
X85943847Y-57723728D01*
X85827855Y-57893488D01*
X85787048Y-58095000D01*
X85787048Y-58364926D01*
X85525786Y-58626188D01*
X85388135Y-58832197D01*
X85339799Y-59075201D01*
X76338000Y-59075201D01*
X76338000Y-50290500D01*
X86887000Y-50290500D01*
X86887000Y-50701048D01*
X86964339Y-50887759D01*
X87107242Y-51030662D01*
X87293953Y-51108000D01*
X87704500Y-51108000D01*
X87831500Y-50981000D01*
X87831500Y-50163500D01*
X87958500Y-50163500D01*
X87958500Y-50981000D01*
X88085500Y-51108000D01*
X88496047Y-51108000D01*
X88682758Y-51030662D01*
X88825661Y-50887759D01*
X88903000Y-50701048D01*
X88903000Y-50290500D01*
X88776000Y-50163500D01*
X87958500Y-50163500D01*
X87831500Y-50163500D01*
X87014000Y-50163500D01*
X86887000Y-50290500D01*
X76338000Y-50290500D01*
X76338000Y-49498952D01*
X86887000Y-49498952D01*
X86887000Y-49909500D01*
X87014000Y-50036500D01*
X87831500Y-50036500D01*
X87831500Y-49219000D01*
X87958500Y-49219000D01*
X87958500Y-50036500D01*
X88776000Y-50036500D01*
X88903000Y-49909500D01*
X88903000Y-49498952D01*
X88825661Y-49312241D01*
X88682758Y-49169338D01*
X88496047Y-49092000D01*
X88085500Y-49092000D01*
X87958500Y-49219000D01*
X87831500Y-49219000D01*
X87704500Y-49092000D01*
X87293953Y-49092000D01*
X87107242Y-49169338D01*
X86964339Y-49312241D01*
X86887000Y-49498952D01*
X76338000Y-49498952D01*
X76338000Y-46085760D01*
X84847430Y-46085760D01*
X84847430Y-47245987D01*
X84924768Y-47432698D01*
X85067671Y-47575601D01*
X85254382Y-47652940D01*
X86164420Y-47652940D01*
X86291420Y-47525940D01*
X86291420Y-45958760D01*
X86418420Y-45958760D01*
X86418420Y-47525940D01*
X86545420Y-47652940D01*
X87455458Y-47652940D01*
X87642169Y-47575601D01*
X87785072Y-47432698D01*
X87862410Y-47245987D01*
X87862410Y-46184820D01*
X88446610Y-46184820D01*
X88446610Y-47245987D01*
X88523948Y-47432698D01*
X88666851Y-47575601D01*
X88853562Y-47652940D01*
X89014300Y-47652940D01*
X89141300Y-47525940D01*
X89141300Y-46057820D01*
X88573610Y-46057820D01*
X88446610Y-46184820D01*
X87862410Y-46184820D01*
X87862410Y-46085760D01*
X87735410Y-45958760D01*
X86418420Y-45958760D01*
X86291420Y-45958760D01*
X84974430Y-45958760D01*
X84847430Y-46085760D01*
X76338000Y-46085760D01*
X76338000Y-42496291D01*
X77046531Y-42496291D01*
X77457931Y-43491955D01*
X78219038Y-44254392D01*
X79213982Y-44667529D01*
X80291291Y-44668469D01*
X80591239Y-44544533D01*
X84847430Y-44544533D01*
X84847430Y-45704760D01*
X84974430Y-45831760D01*
X86291420Y-45831760D01*
X86291420Y-44264580D01*
X86418420Y-44264580D01*
X86418420Y-45831760D01*
X87735410Y-45831760D01*
X87862410Y-45704760D01*
X87862410Y-44742653D01*
X88446610Y-44742653D01*
X88446610Y-45803820D01*
X88573610Y-45930820D01*
X89141300Y-45930820D01*
X89141300Y-44462700D01*
X89014300Y-44335700D01*
X88853562Y-44335700D01*
X88666851Y-44413039D01*
X88523948Y-44555942D01*
X88446610Y-44742653D01*
X87862410Y-44742653D01*
X87862410Y-44544533D01*
X87785072Y-44357822D01*
X87642169Y-44214919D01*
X87455458Y-44137580D01*
X86545420Y-44137580D01*
X86418420Y-44264580D01*
X86291420Y-44264580D01*
X86164420Y-44137580D01*
X85254382Y-44137580D01*
X85067671Y-44214919D01*
X84924768Y-44357822D01*
X84847430Y-44544533D01*
X80591239Y-44544533D01*
X81286955Y-44257069D01*
X81959658Y-43585539D01*
X87647614Y-43585539D01*
X87793090Y-43937617D01*
X88062226Y-44207223D01*
X88414050Y-44353313D01*
X88794999Y-44353646D01*
X89147077Y-44208170D01*
X89416683Y-43939034D01*
X89562773Y-43587210D01*
X89562774Y-43585539D01*
X92046894Y-43585539D01*
X92192370Y-43937617D01*
X92461506Y-44207223D01*
X92813330Y-44353313D01*
X93194279Y-44353646D01*
X93546357Y-44208170D01*
X93815963Y-43939034D01*
X93962053Y-43587210D01*
X93962386Y-43206261D01*
X93816910Y-42854183D01*
X93547774Y-42584577D01*
X93335158Y-42496291D01*
X99046531Y-42496291D01*
X99457931Y-43491955D01*
X100219038Y-44254392D01*
X101213982Y-44667529D01*
X102291291Y-44668469D01*
X103286955Y-44257069D01*
X104049392Y-43495962D01*
X104462529Y-42501018D01*
X104463469Y-41423709D01*
X104052069Y-40428045D01*
X103290962Y-39665608D01*
X102296018Y-39252471D01*
X101218709Y-39251531D01*
X100223045Y-39662931D01*
X99460608Y-40424038D01*
X99047471Y-41418982D01*
X99046531Y-42496291D01*
X93335158Y-42496291D01*
X93195950Y-42438487D01*
X92815001Y-42438154D01*
X92462923Y-42583630D01*
X92193317Y-42852766D01*
X92047227Y-43204590D01*
X92046894Y-43585539D01*
X89562774Y-43585539D01*
X89563106Y-43206261D01*
X89417630Y-42854183D01*
X89148494Y-42584577D01*
X88796670Y-42438487D01*
X88415721Y-42438154D01*
X88063643Y-42583630D01*
X87794037Y-42852766D01*
X87647947Y-43204590D01*
X87647614Y-43585539D01*
X81959658Y-43585539D01*
X82049392Y-43495962D01*
X82462529Y-42501018D01*
X82463469Y-41423709D01*
X82117608Y-40586660D01*
X84847430Y-40586660D01*
X84847430Y-41746887D01*
X84924768Y-41933598D01*
X85067671Y-42076501D01*
X85254382Y-42153840D01*
X86164420Y-42153840D01*
X86291420Y-42026840D01*
X86291420Y-40459660D01*
X86418420Y-40459660D01*
X86418420Y-42026840D01*
X86545420Y-42153840D01*
X87455458Y-42153840D01*
X87642169Y-42076501D01*
X87785072Y-41933598D01*
X87862410Y-41746887D01*
X87862410Y-40586660D01*
X93747590Y-40586660D01*
X93747590Y-41746887D01*
X93824928Y-41933598D01*
X93967831Y-42076501D01*
X94154542Y-42153840D01*
X95064580Y-42153840D01*
X95191580Y-42026840D01*
X95191580Y-40459660D01*
X95318580Y-40459660D01*
X95318580Y-42026840D01*
X95445580Y-42153840D01*
X96355618Y-42153840D01*
X96542329Y-42076501D01*
X96685232Y-41933598D01*
X96762570Y-41746887D01*
X96762570Y-40586660D01*
X96635570Y-40459660D01*
X95318580Y-40459660D01*
X95191580Y-40459660D01*
X93874590Y-40459660D01*
X93747590Y-40586660D01*
X87862410Y-40586660D01*
X87735410Y-40459660D01*
X86418420Y-40459660D01*
X86291420Y-40459660D01*
X84974430Y-40459660D01*
X84847430Y-40586660D01*
X82117608Y-40586660D01*
X82052069Y-40428045D01*
X81290962Y-39665608D01*
X80296018Y-39252471D01*
X79218709Y-39251531D01*
X78223045Y-39662931D01*
X77460608Y-40424038D01*
X77047471Y-41418982D01*
X77046531Y-42496291D01*
X76338000Y-42496291D01*
X76338000Y-39045433D01*
X84847430Y-39045433D01*
X84847430Y-40205660D01*
X84974430Y-40332660D01*
X86291420Y-40332660D01*
X86291420Y-38765480D01*
X86418420Y-38765480D01*
X86418420Y-40332660D01*
X87735410Y-40332660D01*
X87862410Y-40205660D01*
X87862410Y-39045433D01*
X93747590Y-39045433D01*
X93747590Y-40205660D01*
X93874590Y-40332660D01*
X95191580Y-40332660D01*
X95191580Y-38765480D01*
X95318580Y-38765480D01*
X95318580Y-40332660D01*
X96635570Y-40332660D01*
X96762570Y-40205660D01*
X96762570Y-39045433D01*
X96685232Y-38858722D01*
X96542329Y-38715819D01*
X96355618Y-38638480D01*
X95445580Y-38638480D01*
X95318580Y-38765480D01*
X95191580Y-38765480D01*
X95064580Y-38638480D01*
X94154542Y-38638480D01*
X93967831Y-38715819D01*
X93824928Y-38858722D01*
X93747590Y-39045433D01*
X87862410Y-39045433D01*
X87785072Y-38858722D01*
X87642169Y-38715819D01*
X87455458Y-38638480D01*
X86545420Y-38638480D01*
X86418420Y-38765480D01*
X86291420Y-38765480D01*
X86164420Y-38638480D01*
X85254382Y-38638480D01*
X85067671Y-38715819D01*
X84924768Y-38858722D01*
X84847430Y-39045433D01*
X76338000Y-39045433D01*
X76338000Y-38543000D01*
X105172000Y-38543000D01*
X105172000Y-77377000D01*
X105172000Y-77377000D01*
G37*
X105172000Y-77377000D02*
X76338000Y-77377000D01*
X76338000Y-74496291D01*
X77046531Y-74496291D01*
X77457931Y-75491955D01*
X78219038Y-76254392D01*
X79213982Y-76667529D01*
X80291291Y-76668469D01*
X81286955Y-76257069D01*
X82049392Y-75495962D01*
X82462529Y-74501018D01*
X82462533Y-74496291D01*
X99046531Y-74496291D01*
X99457931Y-75491955D01*
X100219038Y-76254392D01*
X101213982Y-76667529D01*
X102291291Y-76668469D01*
X103286955Y-76257069D01*
X104049392Y-75495962D01*
X104462529Y-74501018D01*
X104463469Y-73423709D01*
X104052069Y-72428045D01*
X103290962Y-71665608D01*
X102296018Y-71252471D01*
X101218709Y-71251531D01*
X100223045Y-71662931D01*
X99460608Y-72424038D01*
X99047471Y-73418982D01*
X99046531Y-74496291D01*
X82462533Y-74496291D01*
X82463469Y-73423709D01*
X82052069Y-72428045D01*
X81290962Y-71665608D01*
X80296018Y-71252471D01*
X79218709Y-71251531D01*
X78223045Y-71662931D01*
X77460608Y-72424038D01*
X77047471Y-73418982D01*
X77046531Y-74496291D01*
X76338000Y-74496291D01*
X76338000Y-59075201D01*
X85339799Y-59075201D01*
X85339799Y-64881625D01*
X85388135Y-65124629D01*
X85525786Y-65330638D01*
X88499015Y-68303867D01*
X88240936Y-68690111D01*
X88136529Y-69215000D01*
X88240936Y-69739889D01*
X88538261Y-70184868D01*
X88983240Y-70482193D01*
X88997352Y-70485000D01*
X88983240Y-70487807D01*
X88538261Y-70785132D01*
X88240936Y-71230111D01*
X88136529Y-71755000D01*
X88240936Y-72279889D01*
X88538261Y-72724868D01*
X88983240Y-73022193D01*
X89508129Y-73126600D01*
X89561871Y-73126600D01*
X89784655Y-73082286D01*
X89859783Y-73157414D01*
X89859786Y-73157416D01*
X90316985Y-73614616D01*
X90564196Y-73779797D01*
X90855801Y-73837801D01*
X93304361Y-73837801D01*
X93595966Y-73779797D01*
X93843176Y-73614616D01*
X97058815Y-70398978D01*
X97223996Y-70151767D01*
X97264647Y-69947399D01*
X97282000Y-69860162D01*
X97282000Y-61018000D01*
X97564500Y-61018000D01*
X97691500Y-60891000D01*
X97691500Y-59973500D01*
X97818500Y-59973500D01*
X97818500Y-60891000D01*
X97945500Y-61018000D01*
X98231048Y-61018000D01*
X98417759Y-60940661D01*
X98560662Y-60797758D01*
X98638000Y-60611047D01*
X98638000Y-60100500D01*
X98511000Y-59973500D01*
X97818500Y-59973500D01*
X97691500Y-59973500D01*
X97671500Y-59973500D01*
X97671500Y-59846500D01*
X97691500Y-59846500D01*
X97691500Y-59826500D01*
X97818500Y-59826500D01*
X97818500Y-59846500D01*
X98511000Y-59846500D01*
X98638000Y-59719500D01*
X98638000Y-59208953D01*
X98560662Y-59022242D01*
X98502738Y-58964318D01*
X98607145Y-58811512D01*
X98647952Y-58610000D01*
X98647952Y-57410000D01*
X98612530Y-57221747D01*
X98517000Y-57073289D01*
X98517000Y-55160000D01*
X98458996Y-54868395D01*
X98293815Y-54621185D01*
X97832630Y-54160000D01*
X98514679Y-53477952D01*
X99555000Y-53477952D01*
X99743253Y-53442530D01*
X99916153Y-53331272D01*
X100032145Y-53161512D01*
X100072952Y-52960000D01*
X100072952Y-50960000D01*
X100037530Y-50771747D01*
X99926272Y-50598847D01*
X99756512Y-50482855D01*
X99555000Y-50442048D01*
X97955000Y-50442048D01*
X97766747Y-50477470D01*
X97593847Y-50588728D01*
X97477855Y-50758488D01*
X97437048Y-50960000D01*
X97437048Y-52400321D01*
X96399370Y-53438000D01*
X95582470Y-53438000D01*
X95577530Y-53411747D01*
X95466272Y-53238847D01*
X95296512Y-53122855D01*
X95186905Y-53100659D01*
X95283253Y-53082530D01*
X95456153Y-52971272D01*
X95572145Y-52801512D01*
X95612952Y-52600000D01*
X95612952Y-51400000D01*
X95577530Y-51211747D01*
X95466272Y-51038847D01*
X95296512Y-50922855D01*
X95291566Y-50921854D01*
X95325661Y-50887759D01*
X95403000Y-50701048D01*
X95403000Y-50290500D01*
X95276000Y-50163500D01*
X94458500Y-50163500D01*
X94458500Y-50183500D01*
X94331500Y-50183500D01*
X94331500Y-50163500D01*
X93514000Y-50163500D01*
X93387000Y-50290500D01*
X93387000Y-50701048D01*
X93464339Y-50887759D01*
X93607242Y-51030662D01*
X93782831Y-51103393D01*
X93717855Y-51198488D01*
X93677048Y-51400000D01*
X93677048Y-51403100D01*
X92862952Y-51403100D01*
X92862952Y-51400000D01*
X92827530Y-51211747D01*
X92716272Y-51038847D01*
X92684682Y-51017262D01*
X92756153Y-50971272D01*
X92872145Y-50801512D01*
X92912952Y-50600000D01*
X92912952Y-49600000D01*
X92893939Y-49498952D01*
X93387000Y-49498952D01*
X93387000Y-49909500D01*
X93514000Y-50036500D01*
X94331500Y-50036500D01*
X94331500Y-49219000D01*
X94458500Y-49219000D01*
X94458500Y-50036500D01*
X95276000Y-50036500D01*
X95403000Y-49909500D01*
X95403000Y-49498952D01*
X95325661Y-49312241D01*
X95182758Y-49169338D01*
X94996047Y-49092000D01*
X94585500Y-49092000D01*
X94458500Y-49219000D01*
X94331500Y-49219000D01*
X94204500Y-49092000D01*
X93793953Y-49092000D01*
X93607242Y-49169338D01*
X93464339Y-49312241D01*
X93387000Y-49498952D01*
X92893939Y-49498952D01*
X92877530Y-49411747D01*
X92766272Y-49238847D01*
X92596512Y-49122855D01*
X92395000Y-49082048D01*
X91994476Y-49082048D01*
X91994476Y-47636703D01*
X92010652Y-47633659D01*
X92080655Y-47647835D01*
X92931635Y-48498815D01*
X93178845Y-48663996D01*
X93470450Y-48722000D01*
X97437048Y-48722000D01*
X97437048Y-48960000D01*
X97472470Y-49148253D01*
X97583728Y-49321153D01*
X97753488Y-49437145D01*
X97955000Y-49477952D01*
X99555000Y-49477952D01*
X99743253Y-49442530D01*
X99916153Y-49331272D01*
X100032145Y-49161512D01*
X100072952Y-48960000D01*
X100072952Y-46960000D01*
X100037530Y-46771747D01*
X99926272Y-46598847D01*
X99756512Y-46482855D01*
X99555000Y-46442048D01*
X97955000Y-46442048D01*
X97766747Y-46477470D01*
X97593847Y-46588728D01*
X97477855Y-46758488D01*
X97437048Y-46960000D01*
X97437048Y-47198000D01*
X96762570Y-47198000D01*
X96762570Y-46085760D01*
X96635570Y-45958760D01*
X95318580Y-45958760D01*
X95318580Y-45978760D01*
X95191580Y-45978760D01*
X95191580Y-45958760D01*
X93874590Y-45958760D01*
X93747590Y-46085760D01*
X93747590Y-47159510D01*
X93173342Y-46585262D01*
X93173342Y-44843700D01*
X93137920Y-44655447D01*
X93066549Y-44544533D01*
X93747590Y-44544533D01*
X93747590Y-45704760D01*
X93874590Y-45831760D01*
X95191580Y-45831760D01*
X95191580Y-44264580D01*
X95318580Y-44264580D01*
X95318580Y-45831760D01*
X96635570Y-45831760D01*
X96762570Y-45704760D01*
X96762570Y-44544533D01*
X96685232Y-44357822D01*
X96542329Y-44214919D01*
X96355618Y-44137580D01*
X95445580Y-44137580D01*
X95318580Y-44264580D01*
X95191580Y-44264580D01*
X95064580Y-44137580D01*
X94154542Y-44137580D01*
X93967831Y-44214919D01*
X93824928Y-44357822D01*
X93747590Y-44544533D01*
X93066549Y-44544533D01*
X93026662Y-44482547D01*
X92856902Y-44366555D01*
X92655390Y-44325748D01*
X92155010Y-44325748D01*
X91999648Y-44354981D01*
X91855290Y-44325748D01*
X91354910Y-44325748D01*
X91199548Y-44354981D01*
X91055190Y-44325748D01*
X90554810Y-44325748D01*
X90399448Y-44354981D01*
X90255090Y-44325748D01*
X89754710Y-44325748D01*
X89601575Y-44354562D01*
X89556038Y-44335700D01*
X89395300Y-44335700D01*
X89268300Y-44462700D01*
X89268300Y-44687940D01*
X89236758Y-44843700D01*
X89236758Y-47144940D01*
X89268300Y-47312572D01*
X89268300Y-47525940D01*
X89395300Y-47652940D01*
X89556038Y-47652940D01*
X89605136Y-47632603D01*
X89754710Y-47662892D01*
X90255090Y-47662892D01*
X90410452Y-47633659D01*
X90426046Y-47636817D01*
X90426046Y-49082048D01*
X89895000Y-49082048D01*
X89706747Y-49117470D01*
X89533847Y-49228728D01*
X89417855Y-49398488D01*
X89377048Y-49600000D01*
X89377048Y-50600000D01*
X89412470Y-50788253D01*
X89523728Y-50961153D01*
X89603819Y-51015877D01*
X89583847Y-51028728D01*
X89467855Y-51198488D01*
X89427048Y-51400000D01*
X89427048Y-52600000D01*
X89462470Y-52788253D01*
X89573728Y-52961153D01*
X89743488Y-53077145D01*
X89853095Y-53099341D01*
X89756747Y-53117470D01*
X89583847Y-53228728D01*
X89467855Y-53398488D01*
X89427048Y-53600000D01*
X89427048Y-54800000D01*
X89462470Y-54988253D01*
X89573728Y-55161153D01*
X89743488Y-55277145D01*
X89913995Y-55311673D01*
X89972928Y-55399872D01*
X90038201Y-55465145D01*
X90038201Y-56487655D01*
X88508367Y-58017489D01*
X88487530Y-57906747D01*
X88376272Y-57733847D01*
X88206512Y-57617855D01*
X88005000Y-57577048D01*
X86305000Y-57577048D01*
X86116747Y-57612470D01*
X85943847Y-57723728D01*
X85827855Y-57893488D01*
X85787048Y-58095000D01*
X85787048Y-58364926D01*
X85525786Y-58626188D01*
X85388135Y-58832197D01*
X85339799Y-59075201D01*
X76338000Y-59075201D01*
X76338000Y-50290500D01*
X86887000Y-50290500D01*
X86887000Y-50701048D01*
X86964339Y-50887759D01*
X87107242Y-51030662D01*
X87293953Y-51108000D01*
X87704500Y-51108000D01*
X87831500Y-50981000D01*
X87831500Y-50163500D01*
X87958500Y-50163500D01*
X87958500Y-50981000D01*
X88085500Y-51108000D01*
X88496047Y-51108000D01*
X88682758Y-51030662D01*
X88825661Y-50887759D01*
X88903000Y-50701048D01*
X88903000Y-50290500D01*
X88776000Y-50163500D01*
X87958500Y-50163500D01*
X87831500Y-50163500D01*
X87014000Y-50163500D01*
X86887000Y-50290500D01*
X76338000Y-50290500D01*
X76338000Y-49498952D01*
X86887000Y-49498952D01*
X86887000Y-49909500D01*
X87014000Y-50036500D01*
X87831500Y-50036500D01*
X87831500Y-49219000D01*
X87958500Y-49219000D01*
X87958500Y-50036500D01*
X88776000Y-50036500D01*
X88903000Y-49909500D01*
X88903000Y-49498952D01*
X88825661Y-49312241D01*
X88682758Y-49169338D01*
X88496047Y-49092000D01*
X88085500Y-49092000D01*
X87958500Y-49219000D01*
X87831500Y-49219000D01*
X87704500Y-49092000D01*
X87293953Y-49092000D01*
X87107242Y-49169338D01*
X86964339Y-49312241D01*
X86887000Y-49498952D01*
X76338000Y-49498952D01*
X76338000Y-46085760D01*
X84847430Y-46085760D01*
X84847430Y-47245987D01*
X84924768Y-47432698D01*
X85067671Y-47575601D01*
X85254382Y-47652940D01*
X86164420Y-47652940D01*
X86291420Y-47525940D01*
X86291420Y-45958760D01*
X86418420Y-45958760D01*
X86418420Y-47525940D01*
X86545420Y-47652940D01*
X87455458Y-47652940D01*
X87642169Y-47575601D01*
X87785072Y-47432698D01*
X87862410Y-47245987D01*
X87862410Y-46184820D01*
X88446610Y-46184820D01*
X88446610Y-47245987D01*
X88523948Y-47432698D01*
X88666851Y-47575601D01*
X88853562Y-47652940D01*
X89014300Y-47652940D01*
X89141300Y-47525940D01*
X89141300Y-46057820D01*
X88573610Y-46057820D01*
X88446610Y-46184820D01*
X87862410Y-46184820D01*
X87862410Y-46085760D01*
X87735410Y-45958760D01*
X86418420Y-45958760D01*
X86291420Y-45958760D01*
X84974430Y-45958760D01*
X84847430Y-46085760D01*
X76338000Y-46085760D01*
X76338000Y-42496291D01*
X77046531Y-42496291D01*
X77457931Y-43491955D01*
X78219038Y-44254392D01*
X79213982Y-44667529D01*
X80291291Y-44668469D01*
X80591239Y-44544533D01*
X84847430Y-44544533D01*
X84847430Y-45704760D01*
X84974430Y-45831760D01*
X86291420Y-45831760D01*
X86291420Y-44264580D01*
X86418420Y-44264580D01*
X86418420Y-45831760D01*
X87735410Y-45831760D01*
X87862410Y-45704760D01*
X87862410Y-44742653D01*
X88446610Y-44742653D01*
X88446610Y-45803820D01*
X88573610Y-45930820D01*
X89141300Y-45930820D01*
X89141300Y-44462700D01*
X89014300Y-44335700D01*
X88853562Y-44335700D01*
X88666851Y-44413039D01*
X88523948Y-44555942D01*
X88446610Y-44742653D01*
X87862410Y-44742653D01*
X87862410Y-44544533D01*
X87785072Y-44357822D01*
X87642169Y-44214919D01*
X87455458Y-44137580D01*
X86545420Y-44137580D01*
X86418420Y-44264580D01*
X86291420Y-44264580D01*
X86164420Y-44137580D01*
X85254382Y-44137580D01*
X85067671Y-44214919D01*
X84924768Y-44357822D01*
X84847430Y-44544533D01*
X80591239Y-44544533D01*
X81286955Y-44257069D01*
X81959658Y-43585539D01*
X87647614Y-43585539D01*
X87793090Y-43937617D01*
X88062226Y-44207223D01*
X88414050Y-44353313D01*
X88794999Y-44353646D01*
X89147077Y-44208170D01*
X89416683Y-43939034D01*
X89562773Y-43587210D01*
X89562774Y-43585539D01*
X92046894Y-43585539D01*
X92192370Y-43937617D01*
X92461506Y-44207223D01*
X92813330Y-44353313D01*
X93194279Y-44353646D01*
X93546357Y-44208170D01*
X93815963Y-43939034D01*
X93962053Y-43587210D01*
X93962386Y-43206261D01*
X93816910Y-42854183D01*
X93547774Y-42584577D01*
X93335158Y-42496291D01*
X99046531Y-42496291D01*
X99457931Y-43491955D01*
X100219038Y-44254392D01*
X101213982Y-44667529D01*
X102291291Y-44668469D01*
X103286955Y-44257069D01*
X104049392Y-43495962D01*
X104462529Y-42501018D01*
X104463469Y-41423709D01*
X104052069Y-40428045D01*
X103290962Y-39665608D01*
X102296018Y-39252471D01*
X101218709Y-39251531D01*
X100223045Y-39662931D01*
X99460608Y-40424038D01*
X99047471Y-41418982D01*
X99046531Y-42496291D01*
X93335158Y-42496291D01*
X93195950Y-42438487D01*
X92815001Y-42438154D01*
X92462923Y-42583630D01*
X92193317Y-42852766D01*
X92047227Y-43204590D01*
X92046894Y-43585539D01*
X89562774Y-43585539D01*
X89563106Y-43206261D01*
X89417630Y-42854183D01*
X89148494Y-42584577D01*
X88796670Y-42438487D01*
X88415721Y-42438154D01*
X88063643Y-42583630D01*
X87794037Y-42852766D01*
X87647947Y-43204590D01*
X87647614Y-43585539D01*
X81959658Y-43585539D01*
X82049392Y-43495962D01*
X82462529Y-42501018D01*
X82463469Y-41423709D01*
X82117608Y-40586660D01*
X84847430Y-40586660D01*
X84847430Y-41746887D01*
X84924768Y-41933598D01*
X85067671Y-42076501D01*
X85254382Y-42153840D01*
X86164420Y-42153840D01*
X86291420Y-42026840D01*
X86291420Y-40459660D01*
X86418420Y-40459660D01*
X86418420Y-42026840D01*
X86545420Y-42153840D01*
X87455458Y-42153840D01*
X87642169Y-42076501D01*
X87785072Y-41933598D01*
X87862410Y-41746887D01*
X87862410Y-40586660D01*
X93747590Y-40586660D01*
X93747590Y-41746887D01*
X93824928Y-41933598D01*
X93967831Y-42076501D01*
X94154542Y-42153840D01*
X95064580Y-42153840D01*
X95191580Y-42026840D01*
X95191580Y-40459660D01*
X95318580Y-40459660D01*
X95318580Y-42026840D01*
X95445580Y-42153840D01*
X96355618Y-42153840D01*
X96542329Y-42076501D01*
X96685232Y-41933598D01*
X96762570Y-41746887D01*
X96762570Y-40586660D01*
X96635570Y-40459660D01*
X95318580Y-40459660D01*
X95191580Y-40459660D01*
X93874590Y-40459660D01*
X93747590Y-40586660D01*
X87862410Y-40586660D01*
X87735410Y-40459660D01*
X86418420Y-40459660D01*
X86291420Y-40459660D01*
X84974430Y-40459660D01*
X84847430Y-40586660D01*
X82117608Y-40586660D01*
X82052069Y-40428045D01*
X81290962Y-39665608D01*
X80296018Y-39252471D01*
X79218709Y-39251531D01*
X78223045Y-39662931D01*
X77460608Y-40424038D01*
X77047471Y-41418982D01*
X77046531Y-42496291D01*
X76338000Y-42496291D01*
X76338000Y-39045433D01*
X84847430Y-39045433D01*
X84847430Y-40205660D01*
X84974430Y-40332660D01*
X86291420Y-40332660D01*
X86291420Y-38765480D01*
X86418420Y-38765480D01*
X86418420Y-40332660D01*
X87735410Y-40332660D01*
X87862410Y-40205660D01*
X87862410Y-39045433D01*
X93747590Y-39045433D01*
X93747590Y-40205660D01*
X93874590Y-40332660D01*
X95191580Y-40332660D01*
X95191580Y-38765480D01*
X95318580Y-38765480D01*
X95318580Y-40332660D01*
X96635570Y-40332660D01*
X96762570Y-40205660D01*
X96762570Y-39045433D01*
X96685232Y-38858722D01*
X96542329Y-38715819D01*
X96355618Y-38638480D01*
X95445580Y-38638480D01*
X95318580Y-38765480D01*
X95191580Y-38765480D01*
X95064580Y-38638480D01*
X94154542Y-38638480D01*
X93967831Y-38715819D01*
X93824928Y-38858722D01*
X93747590Y-39045433D01*
X87862410Y-39045433D01*
X87785072Y-38858722D01*
X87642169Y-38715819D01*
X87455458Y-38638480D01*
X86545420Y-38638480D01*
X86418420Y-38765480D01*
X86291420Y-38765480D01*
X86164420Y-38638480D01*
X85254382Y-38638480D01*
X85067671Y-38715819D01*
X84924768Y-38858722D01*
X84847430Y-39045433D01*
X76338000Y-39045433D01*
X76338000Y-38543000D01*
X105172000Y-38543000D01*
X105172000Y-77377000D01*
G36*
X93677048Y-52600000D02*
X93712470Y-52788253D01*
X93823728Y-52961153D01*
X93993488Y-53077145D01*
X94103095Y-53099341D01*
X94006747Y-53117470D01*
X93833847Y-53228728D01*
X93717855Y-53398488D01*
X93677048Y-53600000D01*
X93677048Y-54800000D01*
X93712470Y-54988253D01*
X93823728Y-55161153D01*
X93993488Y-55277145D01*
X94195000Y-55317952D01*
X95095000Y-55317952D01*
X95283253Y-55282530D01*
X95456153Y-55171272D01*
X95572145Y-55001512D01*
X95580146Y-54962000D01*
X96479370Y-54962000D01*
X96993000Y-55475630D01*
X96993000Y-57076556D01*
X96902855Y-57208488D01*
X96862048Y-57410000D01*
X96862048Y-57658000D01*
X95565266Y-57658000D01*
X95506512Y-57617855D01*
X95305000Y-57577048D01*
X93605000Y-57577048D01*
X93416747Y-57612470D01*
X93243847Y-57723728D01*
X93127855Y-57893488D01*
X93105178Y-58005470D01*
X93023042Y-58128395D01*
X92965038Y-58420000D01*
X93023042Y-58711605D01*
X93103391Y-58831855D01*
X93122470Y-58933253D01*
X93201379Y-59055882D01*
X93127855Y-59163488D01*
X93087048Y-59365000D01*
X93087048Y-59634926D01*
X92825786Y-59896188D01*
X92688135Y-60102197D01*
X92639799Y-60345201D01*
X92639799Y-65416519D01*
X92626760Y-65407807D01*
X92101871Y-65303400D01*
X92048129Y-65303400D01*
X91523240Y-65407807D01*
X91078261Y-65705132D01*
X90780936Y-66150111D01*
X90779229Y-66158693D01*
X90680788Y-65921027D01*
X90305037Y-65539946D01*
X89812055Y-65331667D01*
X89598500Y-65431865D01*
X89598500Y-66611500D01*
X89618500Y-66611500D01*
X89618500Y-66738500D01*
X89598500Y-66738500D01*
X89598500Y-66758500D01*
X89471500Y-66758500D01*
X89471500Y-66738500D01*
X89451500Y-66738500D01*
X89451500Y-66611500D01*
X89471500Y-66611500D01*
X89471500Y-65431865D01*
X89257945Y-65331667D01*
X88764963Y-65539946D01*
X88389212Y-65921027D01*
X88249510Y-66258310D01*
X86609799Y-64618599D01*
X86609799Y-63063000D01*
X86964500Y-63063000D01*
X87091500Y-62936000D01*
X87091500Y-62293500D01*
X87218500Y-62293500D01*
X87218500Y-62936000D01*
X87345500Y-63063000D01*
X88106047Y-63063000D01*
X88292758Y-62985662D01*
X88435661Y-62842759D01*
X88513000Y-62656048D01*
X88513000Y-62420500D01*
X88386000Y-62293500D01*
X87218500Y-62293500D01*
X87091500Y-62293500D01*
X87071500Y-62293500D01*
X87071500Y-62166500D01*
X87091500Y-62166500D01*
X87091500Y-62146500D01*
X87218500Y-62146500D01*
X87218500Y-62166500D01*
X88386000Y-62166500D01*
X88513000Y-62039500D01*
X88513000Y-61803952D01*
X88435661Y-61617241D01*
X88410211Y-61591791D01*
X88482145Y-61486512D01*
X88522952Y-61285000D01*
X88522952Y-60961192D01*
X91689272Y-57794872D01*
X91818664Y-57601224D01*
X91864100Y-57372800D01*
X91864100Y-55317952D01*
X92345000Y-55317952D01*
X92533253Y-55282530D01*
X92706153Y-55171272D01*
X92822145Y-55001512D01*
X92862952Y-54800000D01*
X92862952Y-53600000D01*
X92827530Y-53411747D01*
X92716272Y-53238847D01*
X92546512Y-53122855D01*
X92436905Y-53100659D01*
X92533253Y-53082530D01*
X92706153Y-52971272D01*
X92822145Y-52801512D01*
X92862952Y-52600000D01*
X92862952Y-52596900D01*
X93677048Y-52596900D01*
X93677048Y-52600000D01*
X93677048Y-52600000D01*
G37*
X93677048Y-52600000D02*
X93712470Y-52788253D01*
X93823728Y-52961153D01*
X93993488Y-53077145D01*
X94103095Y-53099341D01*
X94006747Y-53117470D01*
X93833847Y-53228728D01*
X93717855Y-53398488D01*
X93677048Y-53600000D01*
X93677048Y-54800000D01*
X93712470Y-54988253D01*
X93823728Y-55161153D01*
X93993488Y-55277145D01*
X94195000Y-55317952D01*
X95095000Y-55317952D01*
X95283253Y-55282530D01*
X95456153Y-55171272D01*
X95572145Y-55001512D01*
X95580146Y-54962000D01*
X96479370Y-54962000D01*
X96993000Y-55475630D01*
X96993000Y-57076556D01*
X96902855Y-57208488D01*
X96862048Y-57410000D01*
X96862048Y-57658000D01*
X95565266Y-57658000D01*
X95506512Y-57617855D01*
X95305000Y-57577048D01*
X93605000Y-57577048D01*
X93416747Y-57612470D01*
X93243847Y-57723728D01*
X93127855Y-57893488D01*
X93105178Y-58005470D01*
X93023042Y-58128395D01*
X92965038Y-58420000D01*
X93023042Y-58711605D01*
X93103391Y-58831855D01*
X93122470Y-58933253D01*
X93201379Y-59055882D01*
X93127855Y-59163488D01*
X93087048Y-59365000D01*
X93087048Y-59634926D01*
X92825786Y-59896188D01*
X92688135Y-60102197D01*
X92639799Y-60345201D01*
X92639799Y-65416519D01*
X92626760Y-65407807D01*
X92101871Y-65303400D01*
X92048129Y-65303400D01*
X91523240Y-65407807D01*
X91078261Y-65705132D01*
X90780936Y-66150111D01*
X90779229Y-66158693D01*
X90680788Y-65921027D01*
X90305037Y-65539946D01*
X89812055Y-65331667D01*
X89598500Y-65431865D01*
X89598500Y-66611500D01*
X89618500Y-66611500D01*
X89618500Y-66738500D01*
X89598500Y-66738500D01*
X89598500Y-66758500D01*
X89471500Y-66758500D01*
X89471500Y-66738500D01*
X89451500Y-66738500D01*
X89451500Y-66611500D01*
X89471500Y-66611500D01*
X89471500Y-65431865D01*
X89257945Y-65331667D01*
X88764963Y-65539946D01*
X88389212Y-65921027D01*
X88249510Y-66258310D01*
X86609799Y-64618599D01*
X86609799Y-63063000D01*
X86964500Y-63063000D01*
X87091500Y-62936000D01*
X87091500Y-62293500D01*
X87218500Y-62293500D01*
X87218500Y-62936000D01*
X87345500Y-63063000D01*
X88106047Y-63063000D01*
X88292758Y-62985662D01*
X88435661Y-62842759D01*
X88513000Y-62656048D01*
X88513000Y-62420500D01*
X88386000Y-62293500D01*
X87218500Y-62293500D01*
X87091500Y-62293500D01*
X87071500Y-62293500D01*
X87071500Y-62166500D01*
X87091500Y-62166500D01*
X87091500Y-62146500D01*
X87218500Y-62146500D01*
X87218500Y-62166500D01*
X88386000Y-62166500D01*
X88513000Y-62039500D01*
X88513000Y-61803952D01*
X88435661Y-61617241D01*
X88410211Y-61591791D01*
X88482145Y-61486512D01*
X88522952Y-61285000D01*
X88522952Y-60961192D01*
X91689272Y-57794872D01*
X91818664Y-57601224D01*
X91864100Y-57372800D01*
X91864100Y-55317952D01*
X92345000Y-55317952D01*
X92533253Y-55282530D01*
X92706153Y-55171272D01*
X92822145Y-55001512D01*
X92862952Y-54800000D01*
X92862952Y-53600000D01*
X92827530Y-53411747D01*
X92716272Y-53238847D01*
X92546512Y-53122855D01*
X92436905Y-53100659D01*
X92533253Y-53082530D01*
X92706153Y-52971272D01*
X92822145Y-52801512D01*
X92862952Y-52600000D01*
X92862952Y-52596900D01*
X93677048Y-52596900D01*
X93677048Y-52600000D01*
M02*
