G04 #@! TF.FileFunction,Soldermask,Bot*
%FSLAX46Y46*%
G04 Gerber Fmt 4.6, Leading zero omitted, Abs format (unit mm)*
G04 Created by KiCad (PCBNEW 4.0.6) date Sunday, July 09, 2017 'PMt' 08:53:28 PM*
%MOMM*%
%LPD*%
G01*
G04 APERTURE LIST*
%ADD10C,0.100000*%
G04 APERTURE END LIST*
D10*
G36*
X79990276Y-71721491D02*
X80420593Y-71809822D01*
X80825552Y-71980051D01*
X81189739Y-72225697D01*
X81499277Y-72537405D01*
X81742375Y-72903295D01*
X81909773Y-73309434D01*
X81995030Y-73740013D01*
X81995030Y-73740023D01*
X81995096Y-73740357D01*
X81988089Y-74242105D01*
X81988013Y-74242439D01*
X81988013Y-74242451D01*
X81890770Y-74670474D01*
X81712094Y-75071784D01*
X81458876Y-75430744D01*
X81140752Y-75733689D01*
X80769854Y-75969067D01*
X80360295Y-76127926D01*
X79927685Y-76204206D01*
X79488494Y-76195007D01*
X79059448Y-76100675D01*
X78656906Y-75924809D01*
X78296186Y-75674102D01*
X77991030Y-75358103D01*
X77753067Y-74988857D01*
X77591354Y-74580418D01*
X77512053Y-74148342D01*
X77518188Y-73709100D01*
X77609519Y-73279416D01*
X77782574Y-72875649D01*
X78030756Y-72513188D01*
X78344617Y-72205833D01*
X78712195Y-71965297D01*
X79119495Y-71800737D01*
X79550997Y-71718423D01*
X79990276Y-71721491D01*
X79990276Y-71721491D01*
G37*
G36*
X101990276Y-71721491D02*
X102420593Y-71809822D01*
X102825552Y-71980051D01*
X103189739Y-72225697D01*
X103499277Y-72537405D01*
X103742375Y-72903295D01*
X103909773Y-73309434D01*
X103995030Y-73740013D01*
X103995030Y-73740023D01*
X103995096Y-73740357D01*
X103988089Y-74242105D01*
X103988013Y-74242439D01*
X103988013Y-74242451D01*
X103890770Y-74670474D01*
X103712094Y-75071784D01*
X103458876Y-75430744D01*
X103140752Y-75733689D01*
X102769854Y-75969067D01*
X102360295Y-76127926D01*
X101927685Y-76204206D01*
X101488494Y-76195007D01*
X101059448Y-76100675D01*
X100656906Y-75924809D01*
X100296186Y-75674102D01*
X99991030Y-75358103D01*
X99753067Y-74988857D01*
X99591354Y-74580418D01*
X99512053Y-74148342D01*
X99518188Y-73709100D01*
X99609519Y-73279416D01*
X99782574Y-72875649D01*
X100030756Y-72513188D01*
X100344617Y-72205833D01*
X100712195Y-71965297D01*
X101119495Y-71800737D01*
X101550997Y-71718423D01*
X101990276Y-71721491D01*
X101990276Y-71721491D01*
G37*
G36*
X89546729Y-70851451D02*
X89551988Y-70851488D01*
X89727241Y-70871146D01*
X89895338Y-70924469D01*
X90049876Y-71009427D01*
X90184970Y-71122784D01*
X90295472Y-71260222D01*
X90377175Y-71416505D01*
X90426967Y-71585682D01*
X90426970Y-71585716D01*
X90426974Y-71585729D01*
X90442953Y-71761306D01*
X90424524Y-71936645D01*
X90424520Y-71936659D01*
X90424516Y-71936694D01*
X90372368Y-72105159D01*
X90288490Y-72260287D01*
X90176079Y-72396168D01*
X90039417Y-72507628D01*
X89883707Y-72590420D01*
X89714882Y-72641391D01*
X89539372Y-72658600D01*
X89530592Y-72658600D01*
X89523271Y-72658549D01*
X89518012Y-72658512D01*
X89342759Y-72638854D01*
X89174662Y-72585531D01*
X89020124Y-72500573D01*
X88885030Y-72387216D01*
X88774528Y-72249778D01*
X88692825Y-72093495D01*
X88643033Y-71924318D01*
X88643030Y-71924284D01*
X88643026Y-71924271D01*
X88627047Y-71748694D01*
X88645476Y-71573355D01*
X88645480Y-71573341D01*
X88645484Y-71573306D01*
X88697632Y-71404841D01*
X88781510Y-71249713D01*
X88893921Y-71113832D01*
X89030583Y-71002372D01*
X89186293Y-70919580D01*
X89355118Y-70868609D01*
X89530628Y-70851400D01*
X89539408Y-70851400D01*
X89546729Y-70851451D01*
X89546729Y-70851451D01*
G37*
G36*
X92978600Y-72658600D02*
X91171400Y-72658600D01*
X91171400Y-70851400D01*
X92978600Y-70851400D01*
X92978600Y-72658600D01*
X92978600Y-72658600D01*
G37*
G36*
X92086729Y-68311451D02*
X92091988Y-68311488D01*
X92267241Y-68331146D01*
X92435338Y-68384469D01*
X92589876Y-68469427D01*
X92724970Y-68582784D01*
X92835472Y-68720222D01*
X92917175Y-68876505D01*
X92966967Y-69045682D01*
X92966970Y-69045716D01*
X92966974Y-69045729D01*
X92982953Y-69221306D01*
X92964524Y-69396645D01*
X92964520Y-69396659D01*
X92964516Y-69396694D01*
X92912368Y-69565159D01*
X92828490Y-69720287D01*
X92716079Y-69856168D01*
X92579417Y-69967628D01*
X92423707Y-70050420D01*
X92254882Y-70101391D01*
X92079372Y-70118600D01*
X92070592Y-70118600D01*
X92063271Y-70118549D01*
X92058012Y-70118512D01*
X91882759Y-70098854D01*
X91714662Y-70045531D01*
X91560124Y-69960573D01*
X91425030Y-69847216D01*
X91314528Y-69709778D01*
X91232825Y-69553495D01*
X91183033Y-69384318D01*
X91183030Y-69384284D01*
X91183026Y-69384271D01*
X91167047Y-69208694D01*
X91185476Y-69033355D01*
X91185480Y-69033341D01*
X91185484Y-69033306D01*
X91237632Y-68864841D01*
X91321510Y-68709713D01*
X91433921Y-68573832D01*
X91570583Y-68462372D01*
X91726293Y-68379580D01*
X91895118Y-68328609D01*
X92070628Y-68311400D01*
X92079408Y-68311400D01*
X92086729Y-68311451D01*
X92086729Y-68311451D01*
G37*
G36*
X89546729Y-68311451D02*
X89551988Y-68311488D01*
X89727241Y-68331146D01*
X89895338Y-68384469D01*
X90049876Y-68469427D01*
X90184970Y-68582784D01*
X90295472Y-68720222D01*
X90377175Y-68876505D01*
X90426967Y-69045682D01*
X90426970Y-69045716D01*
X90426974Y-69045729D01*
X90442953Y-69221306D01*
X90424524Y-69396645D01*
X90424520Y-69396659D01*
X90424516Y-69396694D01*
X90372368Y-69565159D01*
X90288490Y-69720287D01*
X90176079Y-69856168D01*
X90039417Y-69967628D01*
X89883707Y-70050420D01*
X89714882Y-70101391D01*
X89539372Y-70118600D01*
X89530592Y-70118600D01*
X89523271Y-70118549D01*
X89518012Y-70118512D01*
X89342759Y-70098854D01*
X89174662Y-70045531D01*
X89020124Y-69960573D01*
X88885030Y-69847216D01*
X88774528Y-69709778D01*
X88692825Y-69553495D01*
X88643033Y-69384318D01*
X88643030Y-69384284D01*
X88643026Y-69384271D01*
X88627047Y-69208694D01*
X88645476Y-69033355D01*
X88645480Y-69033341D01*
X88645484Y-69033306D01*
X88697632Y-68864841D01*
X88781510Y-68709713D01*
X88893921Y-68573832D01*
X89030583Y-68462372D01*
X89186293Y-68379580D01*
X89355118Y-68328609D01*
X89530628Y-68311400D01*
X89539408Y-68311400D01*
X89546729Y-68311451D01*
X89546729Y-68311451D01*
G37*
G36*
X92086729Y-65771451D02*
X92091988Y-65771488D01*
X92267241Y-65791146D01*
X92435338Y-65844469D01*
X92589876Y-65929427D01*
X92724970Y-66042784D01*
X92835472Y-66180222D01*
X92917175Y-66336505D01*
X92966967Y-66505682D01*
X92966970Y-66505716D01*
X92966974Y-66505729D01*
X92982953Y-66681306D01*
X92964524Y-66856645D01*
X92964520Y-66856659D01*
X92964516Y-66856694D01*
X92912368Y-67025159D01*
X92828490Y-67180287D01*
X92716079Y-67316168D01*
X92579417Y-67427628D01*
X92423707Y-67510420D01*
X92254882Y-67561391D01*
X92079372Y-67578600D01*
X92070592Y-67578600D01*
X92063271Y-67578549D01*
X92058012Y-67578512D01*
X91882759Y-67558854D01*
X91714662Y-67505531D01*
X91560124Y-67420573D01*
X91425030Y-67307216D01*
X91314528Y-67169778D01*
X91232825Y-67013495D01*
X91183033Y-66844318D01*
X91183030Y-66844284D01*
X91183026Y-66844271D01*
X91167047Y-66668694D01*
X91185476Y-66493355D01*
X91185480Y-66493341D01*
X91185484Y-66493306D01*
X91237632Y-66324841D01*
X91321510Y-66169713D01*
X91433921Y-66033832D01*
X91570583Y-65922372D01*
X91726293Y-65839580D01*
X91895118Y-65788609D01*
X92070628Y-65771400D01*
X92079408Y-65771400D01*
X92086729Y-65771451D01*
X92086729Y-65771451D01*
G37*
G36*
X89546729Y-65771451D02*
X89551988Y-65771488D01*
X89727241Y-65791146D01*
X89895338Y-65844469D01*
X90049876Y-65929427D01*
X90184970Y-66042784D01*
X90295472Y-66180222D01*
X90377175Y-66336505D01*
X90426967Y-66505682D01*
X90426970Y-66505716D01*
X90426974Y-66505729D01*
X90442953Y-66681306D01*
X90424524Y-66856645D01*
X90424520Y-66856659D01*
X90424516Y-66856694D01*
X90372368Y-67025159D01*
X90288490Y-67180287D01*
X90176079Y-67316168D01*
X90039417Y-67427628D01*
X89883707Y-67510420D01*
X89714882Y-67561391D01*
X89539372Y-67578600D01*
X89530592Y-67578600D01*
X89523271Y-67578549D01*
X89518012Y-67578512D01*
X89342759Y-67558854D01*
X89174662Y-67505531D01*
X89020124Y-67420573D01*
X88885030Y-67307216D01*
X88774528Y-67169778D01*
X88692825Y-67013495D01*
X88643033Y-66844318D01*
X88643030Y-66844284D01*
X88643026Y-66844271D01*
X88627047Y-66668694D01*
X88645476Y-66493355D01*
X88645480Y-66493341D01*
X88645484Y-66493306D01*
X88697632Y-66324841D01*
X88781510Y-66169713D01*
X88893921Y-66033832D01*
X89030583Y-65922372D01*
X89186293Y-65839580D01*
X89355118Y-65788609D01*
X89530628Y-65771400D01*
X89539408Y-65771400D01*
X89546729Y-65771451D01*
X89546729Y-65771451D01*
G37*
G36*
X79990276Y-39721491D02*
X80420593Y-39809822D01*
X80825552Y-39980051D01*
X81189739Y-40225697D01*
X81499277Y-40537405D01*
X81742375Y-40903295D01*
X81909773Y-41309434D01*
X81995030Y-41740013D01*
X81995030Y-41740023D01*
X81995096Y-41740357D01*
X81988089Y-42242105D01*
X81988013Y-42242439D01*
X81988013Y-42242451D01*
X81890770Y-42670474D01*
X81712094Y-43071784D01*
X81458876Y-43430744D01*
X81140752Y-43733689D01*
X80769854Y-43969067D01*
X80360295Y-44127926D01*
X79927685Y-44204206D01*
X79488494Y-44195007D01*
X79059448Y-44100675D01*
X78656906Y-43924809D01*
X78296186Y-43674102D01*
X77991030Y-43358103D01*
X77753067Y-42988857D01*
X77591354Y-42580418D01*
X77512053Y-42148342D01*
X77518188Y-41709100D01*
X77609519Y-41279416D01*
X77782574Y-40875649D01*
X78030756Y-40513188D01*
X78344617Y-40205833D01*
X78712195Y-39965297D01*
X79119495Y-39800737D01*
X79550997Y-39718423D01*
X79990276Y-39721491D01*
X79990276Y-39721491D01*
G37*
G36*
X101990276Y-39721491D02*
X102420593Y-39809822D01*
X102825552Y-39980051D01*
X103189739Y-40225697D01*
X103499277Y-40537405D01*
X103742375Y-40903295D01*
X103909773Y-41309434D01*
X103995030Y-41740013D01*
X103995030Y-41740023D01*
X103995096Y-41740357D01*
X103988089Y-42242105D01*
X103988013Y-42242439D01*
X103988013Y-42242451D01*
X103890770Y-42670474D01*
X103712094Y-43071784D01*
X103458876Y-43430744D01*
X103140752Y-43733689D01*
X102769854Y-43969067D01*
X102360295Y-44127926D01*
X101927685Y-44204206D01*
X101488494Y-44195007D01*
X101059448Y-44100675D01*
X100656906Y-43924809D01*
X100296186Y-43674102D01*
X99991030Y-43358103D01*
X99753067Y-42988857D01*
X99591354Y-42580418D01*
X99512053Y-42148342D01*
X99518188Y-41709100D01*
X99609519Y-41279416D01*
X99782574Y-40875649D01*
X100030756Y-40513188D01*
X100344617Y-40205833D01*
X100712195Y-39965297D01*
X101119495Y-39800737D01*
X101550997Y-39718423D01*
X101990276Y-39721491D01*
X101990276Y-39721491D01*
G37*
G36*
X93056062Y-42906644D02*
X93150117Y-42925951D01*
X93238620Y-42963154D01*
X93318224Y-43016847D01*
X93385876Y-43084973D01*
X93439006Y-43164942D01*
X93475594Y-43253709D01*
X93494175Y-43347550D01*
X93494175Y-43347560D01*
X93494241Y-43347894D01*
X93492710Y-43457558D01*
X93492634Y-43457892D01*
X93492634Y-43457903D01*
X93471441Y-43551183D01*
X93432388Y-43638897D01*
X93377048Y-43717348D01*
X93307514Y-43783563D01*
X93226449Y-43835009D01*
X93136935Y-43869730D01*
X93042384Y-43886401D01*
X92946393Y-43884391D01*
X92852618Y-43863772D01*
X92764639Y-43825336D01*
X92685794Y-43770537D01*
X92619099Y-43701473D01*
X92567091Y-43620772D01*
X92531747Y-43531502D01*
X92514414Y-43437062D01*
X92515755Y-43341062D01*
X92535716Y-43247151D01*
X92573540Y-43158899D01*
X92627783Y-43079681D01*
X92696383Y-43012502D01*
X92776721Y-42959930D01*
X92865742Y-42923964D01*
X92960050Y-42905973D01*
X93056062Y-42906644D01*
X93056062Y-42906644D01*
G37*
G36*
X88656782Y-42906644D02*
X88750837Y-42925951D01*
X88839340Y-42963154D01*
X88918944Y-43016847D01*
X88986596Y-43084973D01*
X89039726Y-43164942D01*
X89076314Y-43253709D01*
X89094895Y-43347550D01*
X89094895Y-43347560D01*
X89094961Y-43347894D01*
X89093430Y-43457558D01*
X89093354Y-43457892D01*
X89093354Y-43457903D01*
X89072161Y-43551183D01*
X89033108Y-43638897D01*
X88977768Y-43717348D01*
X88908234Y-43783563D01*
X88827169Y-43835009D01*
X88737655Y-43869730D01*
X88643104Y-43886401D01*
X88547113Y-43884391D01*
X88453338Y-43863772D01*
X88365359Y-43825336D01*
X88286514Y-43770537D01*
X88219819Y-43701473D01*
X88167811Y-43620772D01*
X88132467Y-43531502D01*
X88115134Y-43437062D01*
X88116475Y-43341062D01*
X88136436Y-43247151D01*
X88174260Y-43158899D01*
X88228503Y-43079681D01*
X88297103Y-43012502D01*
X88377441Y-42959930D01*
X88466462Y-42923964D01*
X88560770Y-42905973D01*
X88656782Y-42906644D01*
X88656782Y-42906644D01*
G37*
M02*
