M48
;DRILL file {KiCad 4.0.6} date Sunday, July 09, 2017 'PMt' 08:53:29 PM
;FORMAT={-:-/ absolute / metric / decimal}
FMAT,2
METRIC,TZ
T1C0.300
T2C1.016
T3C2.200
T4C0.899
%
G90
G05
M71
T1
X84.455Y-40.386
X84.455Y-45.72
X87.755Y-63.96
X90.043Y-48.26
X90.043Y-55.88
X92.329Y-48.26
X92.329Y-55.88
X93.218Y-51.054
X93.218Y-54.356
X96.255Y-55.96
X97.155Y-40.386
X97.155Y-45.212
T2
X89.535Y-66.675
X89.535Y-69.215
X89.535Y-71.755
X92.075Y-66.675
X92.075Y-69.215
X92.075Y-71.755
T3
X79.755Y-41.96
X79.755Y-73.96
X101.755Y-41.96
X101.755Y-73.96
T4
X88.605Y-43.396
X93.005Y-43.396
T0
M30
